<svg width="104" height="103" viewBox="0 0 104 103" fill="none" xmlns="http://www.w3.org/2000/svg">
<path d="M62.3633 19.3071C67.3269 14.0499 72.0545 8.28096 75.6316 2" stroke="#445164" stroke-width="3" stroke-linecap="round"/>
<path fill-rule="evenodd" clip-rule="evenodd" d="M90.8256 48.2458C90.9946 46.9552 91.5066 45.6615 92.1594 44.3981C92.332 44.0558 92.6255 43.7739 92.9807 43.5775C93.4888 43.2831 94.0975 43.1635 94.5886 43.289C95.4699 43.5147 95.7154 44.3695 95.2902 45.1936C95.2601 45.2483 95.2393 45.2976 95.2091 45.3524C95.0185 45.7703 94.8279 46.1883 94.6637 46.6095C94.5859 46.8596 94.5121 47.1167 94.4515 47.3754C94.2781 48.3018 94.1654 49.2246 94.053 50.1455C93.9929 50.6376 93.9329 51.1292 93.8637 51.6204C93.6936 52.8264 93.4293 54.0517 93.1674 55.2661L93.1467 55.3625C93.117 55.5012 93.0875 55.6402 93.058 55.7792C92.7184 57.3776 92.3745 58.9961 91.8208 60.5942C91.5191 61.4399 91.2 62.277 90.7922 63.1097L90.7732 63.1478C90.4581 63.7796 90.1152 64.4671 89.6086 65.0347C89.1114 65.5836 88.4876 66.0195 87.7435 66.0965C87.4205 66.1345 87.089 66.0936 86.843 65.9659C86.6761 65.8859 86.5344 65.7816 86.4216 65.6587C86.1378 65.6989 85.8557 65.7248 85.5748 65.7314C83.9679 65.7956 82.4023 65.6653 80.8469 65.5359C80.4789 65.5053 80.1116 65.4747 79.7444 65.4468L79.7577 65.4484C78.0797 65.3582 76.4045 65.2942 74.7021 65.3113C72.9599 65.3235 71.206 65.3797 69.4509 65.4553C68.6774 65.5027 67.8988 65.5624 67.1149 65.6344L65.824 65.7672C65.1289 65.8437 64.5445 65.6418 64.259 65.1456C63.8689 64.4677 64.2996 63.482 65.1825 62.9612C65.6035 62.708 65.9964 62.6202 66.4452 62.5652C66.6517 62.5387 66.8518 62.544 67.027 62.5916C68.3087 62.4641 69.58 62.3613 70.8437 62.3095C72.4332 62.246 73.999 62.2055 75.5769 62.186C77.0925 62.1654 78.5861 62.2133 80.0732 62.293C81.2403 62.3565 82.403 62.4417 83.5626 62.5267C83.8056 62.5445 84.0484 62.5623 84.2911 62.5799C84.9525 62.6161 85.6191 62.64 86.2973 62.6198C86.343 62.6207 86.3914 62.6149 86.437 62.6095C86.4536 62.6075 86.4698 62.6056 86.4854 62.604C86.4888 62.5872 86.4908 62.5739 86.492 62.5622C86.4931 62.5518 86.4936 62.5428 86.4942 62.5337C86.4973 62.4107 86.5005 62.2878 86.4944 62.1702C86.4411 61.7351 86.355 61.3284 86.2515 60.9131L86.2069 60.761C85.758 59.2341 85.3048 57.6925 84.6834 56.2397C84.2398 55.2859 83.6807 54.4127 83.117 53.5324C83.0213 53.3829 82.9254 53.2331 82.83 53.0828C82.7065 52.9102 82.5841 52.7375 82.4618 52.565C82.0238 51.947 81.5875 51.3314 81.1091 50.7343C80.4759 49.955 79.8097 49.204 79.1303 48.4514C79.0375 48.3593 78.945 48.2671 78.8526 48.1749C78.3718 47.6955 77.8917 47.2168 77.382 46.7618L77.3756 46.7562C76.5834 46.0628 75.7912 45.3693 74.9846 44.6935C74.3635 44.1694 73.7242 43.6559 73.0886 43.1453C72.9401 43.026 72.7918 42.9069 72.644 42.7879C72.203 42.4265 71.7339 42.0941 71.2657 41.7625C71.0408 41.6032 70.8161 41.4441 70.5948 41.2819C70.6239 41.3079 70.6547 41.3298 70.6845 41.3509C70.7066 41.3666 70.7281 41.3819 70.748 41.3982L70.6297 41.3203C69.4202 40.5235 68.2186 39.732 66.8887 39.0585C65.8506 38.5603 64.7587 38.1398 63.6419 37.7618C62.6898 37.456 61.7077 37.2049 60.7047 37.0032C59.8411 36.8512 58.9567 36.7485 58.0474 36.6882C56.9777 36.6276 55.9045 36.625 54.8064 36.6647C53.9972 36.7142 53.1948 36.7969 52.3768 36.9167C51.6026 37.0484 50.83 37.2257 50.051 37.4347C49.2523 37.6737 48.4657 37.9337 47.6859 38.227C46.7225 38.6081 45.7833 39.031 44.859 39.5012C43.9058 40.0069 42.9674 40.5598 42.0491 41.1476C41.8447 41.2847 41.6494 41.4165 41.445 41.5535C43.6369 41.6163 45.7955 41.8568 47.7655 42.4115C49.9677 43.0275 52.2275 43.9362 53.4919 45.5985C54.6989 47.1824 55.16 49.1611 55.0561 51.2713C54.9554 53.2586 54.3763 55.4205 53.2433 57.3908C51.9951 59.5675 50.1703 61.4913 47.8988 63.0029C45.6642 64.493 43.1144 65.3924 40.61 65.5572C38.1546 65.7216 35.9914 64.9806 34.4891 63.6331C32.8643 62.1795 31.6463 60.3411 30.8104 58.3746C30.0135 56.4972 29.4564 54.4158 29.6776 52.2096C29.8963 50.0422 30.9186 47.7726 32.4674 45.7758C32.5686 45.6519 32.6606 45.5334 32.7618 45.4096C32.3689 45.4974 31.9707 45.5976 31.5858 45.6994C30.3757 46.037 29.1753 46.4342 27.9846 46.891C27.0178 47.28 26.0697 47.7016 25.1237 48.1656C25.0924 48.1827 25.0605 48.199 25.0274 48.2131C25.0207 48.2168 25.0139 48.2206 25.0071 48.2246C23.898 48.8018 22.817 49.4281 21.7642 50.1032L21.7549 50.1085C21.7205 50.1285 21.6842 50.1531 21.6461 50.1779C20.3808 51.0233 19.1727 51.9073 17.9917 52.8384L17.6501 53.1246C16.4355 54.1418 15.2296 55.1517 14.1151 56.2489C13.64 56.7292 13.177 57.2303 12.7404 57.7348C12.3975 58.1664 12.077 58.5944 11.7779 59.0379C11.4712 59.5324 11.191 60.0302 10.928 60.5366C10.6656 61.108 10.4296 61.6827 10.2108 62.266C9.84808 63.3055 9.53839 64.3516 9.30424 65.4004C9.22729 65.7805 9.17286 66.1568 9.14088 66.5294C9.12894 66.7227 9.12619 66.9107 9.13671 67.1002C9.14618 67.188 9.16382 67.2711 9.18145 67.3541C9.19025 67.3956 9.19904 67.437 9.20682 67.479C9.21768 67.5193 9.24181 67.5612 9.25267 67.6015C9.27607 67.6538 9.30218 67.7045 9.33023 67.7557C9.35373 67.7986 9.37858 67.8418 9.40428 67.8864C9.79436 68.5644 9.37696 69.5516 8.48081 70.0708C7.58465 70.5899 6.51975 70.452 6.13369 69.7811L6.08946 69.7042C5.77418 69.1134 5.56447 68.4708 5.55972 67.756C5.55008 66.9043 5.67141 66.0233 5.88557 65.1537C6.09973 64.2842 6.37209 63.4089 6.6445 62.5336C7.14233 60.894 7.94595 59.2077 9.02087 57.6718C10.2178 55.9626 11.7247 54.4281 13.3461 52.9856C15.4627 51.0979 17.7376 49.314 20.1506 47.7485C20.7258 47.378 21.2998 47.0268 21.8766 46.702C25.2673 44.7377 28.9395 43.2627 32.6438 42.4214C33.8861 42.1398 35.142 41.9247 36.3852 41.773C36.9912 41.2635 37.6134 40.7819 38.2528 40.309C42.7278 37.0178 47.9826 34.4395 53.2897 33.7506C54.6863 33.566 56.0717 33.4902 57.4287 33.5149C58.6385 33.5409 59.8552 33.6001 61.0169 33.7565C63.3524 34.0902 65.5534 34.7255 67.5902 35.5677C69.979 36.5508 72.0747 37.8807 74.0571 39.3135C75.3791 40.2623 76.6352 41.2679 77.8624 42.3088C78.502 42.8422 79.1363 43.388 79.7613 43.9391C80.3651 44.4746 80.9412 45.0261 81.512 45.59C82.6629 46.7125 83.6741 47.9345 84.6615 49.1796C85.0084 49.6218 85.3241 50.0821 85.6397 50.5423C85.7448 50.6956 85.8499 50.8489 85.9562 51.0015C86.514 51.778 87.0242 52.6006 87.4802 53.436C88.2135 54.7725 88.7177 56.227 89.1696 57.7007C89.3641 56.888 89.5371 56.0759 89.7099 55.2652L89.7476 55.0858L89.8041 54.7992C90.0782 53.4109 90.353 52.0185 90.5222 50.6301C90.6163 49.8301 90.7183 49.0442 90.8256 48.2458ZM25.0297 48.2118C25.061 48.1964 25.0924 48.1809 25.1237 48.1656C25.148 48.1523 25.1719 48.1384 25.1958 48.1245C25.1635 48.1433 25.1325 48.1589 25.1015 48.1746C25.0777 48.1865 25.054 48.1985 25.0297 48.2118ZM25.0297 48.2118L25.0255 48.2139L25.0274 48.2131L25.0297 48.2118ZM44.0247 61.8365C44.363 61.6965 44.6933 61.5424 45.0327 61.3831C45.2215 61.283 45.4062 61.176 45.6043 61.0706C45.7891 60.9635 45.9646 60.8618 46.1454 60.7478C46.5358 60.4843 46.9182 60.2069 47.2926 59.9155C47.6589 59.6101 48.0131 59.2837 48.3541 58.9558C48.5975 58.6936 48.8368 58.4245 49.0721 58.1484C49.319 57.8283 49.5527 57.5066 49.7784 57.1708C49.9856 56.8458 50.1703 56.5245 50.3469 56.1892C50.5456 55.7852 50.7125 55.3903 50.8715 54.9814C51.0572 54.4265 51.2073 53.8737 51.3307 53.3176C51.4125 52.8602 51.4717 52.4066 51.5085 51.9566C51.5319 51.5051 51.5238 51.0625 51.4878 50.6361C51.443 50.2799 51.3757 49.9275 51.2992 49.5805C51.2111 49.2774 51.0964 48.9711 50.9765 48.6771C50.8583 48.4288 50.7256 48.1982 50.5836 47.9729C50.4433 47.7933 50.307 47.6206 50.1482 47.4517C49.9456 47.2709 49.743 47.0901 49.5219 46.9199C49.1972 46.6981 48.8527 46.5062 48.499 46.3197C47.954 46.0577 47.3934 45.8326 46.7998 45.636C46.0829 45.4177 45.3463 45.2294 44.5941 45.0781C43.6089 44.8999 42.6117 44.7811 41.5831 44.7076C40.4096 44.641 39.2248 44.617 38.0183 44.6755C37.8262 44.6842 37.6249 44.6984 37.4236 44.7125C37.2485 44.8791 37.0642 45.0511 36.8891 45.2178C36.4521 45.6573 36.0364 46.1124 35.6369 46.5955C35.3084 47.0094 34.992 47.4443 34.7021 47.8825C34.4596 48.2746 34.2344 48.6753 34.0224 49.0776C33.8723 49.4162 33.7315 49.7494 33.6038 50.0843C33.504 50.403 33.4173 50.7235 33.3439 51.0455C33.307 51.2812 33.2754 51.5045 33.2478 51.7349C33.226 52.2321 33.2318 52.7132 33.2642 53.1977C33.3344 53.7907 33.4415 54.3623 33.5844 54.9318C33.7853 55.6448 34.0416 56.3257 34.3389 56.9921C34.723 57.7667 35.144 58.5199 35.6297 59.2356C35.9948 59.7416 36.3743 60.23 36.8133 60.6932C37.1414 61.0064 37.4839 61.3018 37.8501 61.5743C37.9594 61.643 38.0675 61.7094 38.1766 61.7739C38.2601 61.8232 38.3442 61.8714 38.4301 61.9185C38.6772 62.0269 38.9244 62.1354 39.186 62.2261C39.3877 62.277 39.5854 62.3209 39.7831 62.3647C40.0125 62.3996 40.2247 62.4257 40.4554 62.4412C40.686 62.4567 40.9219 62.4599 41.163 62.4507C41.5033 62.4213 41.8396 62.3848 42.1811 62.3361C42.5146 62.2734 42.844 62.2037 43.1746 62.1146C43.4603 62.033 43.7379 61.9375 44.0247 61.8365Z" fill="#445164"/>
<path d="M45.092 26.0063C41.147 23.5873 37.7046 19.7281 33.8356 17.0168C31.9457 15.6924 29.8573 14.9305 28.0352 13.5593" stroke="#445164" stroke-width="3" stroke-linecap="round"/>
<path d="M53.3623 20.3016C55.4165 20.0726 54.3961 5.5419 54.3961 2.66846" stroke="#445164" stroke-width="3" stroke-linecap="round"/>
</svg>
