<svg width="36" height="36" viewBox="0 0 36 36" fill="none" xmlns="http://www.w3.org/2000/svg">
<path opacity="0.4" d="M30.543 13.1169C30.543 15.6738 29.7847 18.0191 28.4798 19.9764C26.5754 22.7978 23.5601 24.7904 20.051 25.3017C19.4514 25.4075 18.8343 25.4604 18.1995 25.4604C17.5647 25.4604 16.9475 25.4075 16.3479 25.3017C12.8389 24.7904 9.82351 22.7978 7.91909 19.9764C6.6142 18.0191 5.85596 15.6738 5.85596 13.1169C5.85596 6.29275 11.3753 0.773438 18.1995 0.773438C25.0237 0.773438 30.543 6.29275 30.543 13.1169Z" fill="#312E81"/>
<path d="M34.5105 29.8161L31.6009 30.5037C30.9485 30.6624 30.4371 31.1562 30.296 31.8087L29.6789 34.4008C29.3438 35.8115 27.5452 36.2347 26.6106 35.1238L18.1994 25.4606L9.7882 35.1414C8.85362 36.2523 7.055 35.8291 6.71996 34.4184L6.10278 31.8263C5.94408 31.1738 5.43271 30.6625 4.7979 30.5214L1.88836 29.8337C0.548209 29.5163 0.0721022 27.8411 1.04195 26.8712L7.91904 19.9941C9.82347 22.8155 12.8388 24.8081 16.3479 25.3195C16.9474 25.4253 17.5646 25.4782 18.1994 25.4782C18.8342 25.4782 19.4514 25.4253 20.0509 25.3195C23.56 24.8081 26.5754 22.8155 28.4798 19.9941L35.3569 26.8712C36.3267 27.8234 35.8506 29.4987 34.5105 29.8161Z" fill="#312E81"/>
<path d="M19.2222 7.79172L20.2626 9.87247C20.4037 10.1546 20.774 10.4368 21.109 10.4897L22.9958 10.8071C24.1949 11.001 24.4771 11.8827 23.613 12.7468L22.1494 14.2103C21.9025 14.4572 21.7615 14.9333 21.8496 15.286L22.2729 17.1023C22.6079 18.5306 21.8496 19.0948 20.58 18.3366L18.8167 17.2962C18.4993 17.1022 17.9703 17.1022 17.6529 17.2962L15.8895 18.3366C14.6199 19.0772 13.8616 18.5306 14.1967 17.1023L14.6199 15.286C14.6904 14.951 14.567 14.4572 14.3201 14.2103L12.8565 12.7468C11.9925 11.8827 12.2746 11.0187 13.4737 10.8071L15.3605 10.4897C15.6779 10.4368 16.0482 10.1546 16.1893 9.87247L17.2297 7.79172C17.741 6.66318 18.658 6.66318 19.2222 7.79172Z" fill="#312E81"/>
</svg>
