<svg width="64" height="64" viewBox="0 0 64 64" fill="none" xmlns="http://www.w3.org/2000/svg">
<g clip-path="url(#clip0_376_507)">
<path fill-rule="evenodd" clip-rule="evenodd" d="M28.507 31.1189L31.9999 56.623V56.6637C32.0077 59.3446 33.4415 61.4448 35.4963 62.758C36.7847 63.5813 38.2939 63.9918 39.8227 63.9918H41.5791C44.5029 63.9918 47.2449 62.4576 48.6729 59.9063C48.7188 59.8241 48.7638 59.7408 48.8078 59.6562C52.9387 59.3241 56.4889 54.1508 55.2537 49.033C59.4214 48.7268 61.9436 40.738 58.4563 37.1736C61.2891 34.2585 61.2891 26.0928 56.8253 24.6721C59.4214 19.9084 56.4851 13.9418 51.0822 13.7573C53.1457 10.7132 52.0252 4.6728 46.3079 4.68018C42.3473 -1.75866 35.4724 -1.04287 31.9998 3.73192L28.507 31.1189Z" fill="#EE6161"/>
<path fill-rule="evenodd" clip-rule="evenodd" d="M53.5489 40.0738C54.9431 43.9962 52.6059 49.6565 49.1112 49.9111C50.3464 55.029 46.7962 60.2022 42.6654 60.5307C41.8555 62.0952 40.7021 63.2198 39.3744 63.98C39.5125 63.9846 39.6514 63.9885 39.7911 63.9917C40.4011 64.0057 40.9973 63.9995 41.5792 63.9917C44.8721 63.9486 47.2319 62.3509 48.673 59.9062C48.719 59.8241 48.764 59.7408 48.808 59.6561C52.9388 59.3241 56.489 54.1508 55.2538 49.0329C59.4215 48.7267 61.9437 40.738 58.4564 37.1735C61.2892 34.2585 61.2892 26.0928 56.8255 24.6721C59.4215 19.9084 56.4853 13.9418 51.0823 13.7573C53.1458 10.7132 52.0253 4.67278 46.308 4.68015C43.2385 -0.312233 38.4161 -1.00227 34.7883 1.16009C36.7668 1.72089 38.6714 3.13047 40.1654 5.55842C41.1454 5.5548 41.9886 5.7319 42.706 6.04186C46.1712 7.5363 46.6482 12.1155 44.9397 14.6357C50.3427 14.8202 53.2789 20.7868 50.6829 25.5505C55.1466 26.971 55.1466 35.1368 52.3138 38.0519C52.8759 38.6273 53.2827 39.3174 53.5489 40.0738Z" fill="#E94444"/>
<path d="M41.2222 9.07469C41.0693 9.07469 40.9143 9.03845 40.7697 8.96208C40.2959 8.71174 40.1148 8.12468 40.3652 7.65087C42.1573 4.25928 44.3633 3.75547 46.2849 3.70985C46.8157 3.69498 47.2652 4.12105 47.2779 4.65686C47.2906 5.19254 46.8666 5.63711 46.3309 5.64986C44.8827 5.68411 43.468 5.93233 42.0808 8.55738C41.907 8.88684 41.5704 9.07469 41.2222 9.07469Z" fill="#D83131"/>
<path d="M42.5518 29.0796C40.4329 29.0796 38.4803 28.1524 37.1324 26.4192C36.8036 25.9963 36.8797 25.3866 37.3028 25.0576C37.726 24.7287 38.3355 24.8049 38.6645 25.228C40.0413 26.9985 42.2192 27.5862 44.4906 26.8003C46.6155 26.065 48.7524 23.995 48.7364 21.0282C48.7335 20.4924 49.1656 20.0556 49.7015 20.0527H49.7068C50.2402 20.0527 50.674 20.4837 50.6769 21.0177C50.6951 24.4178 48.4642 27.4786 45.1252 28.6341C44.2594 28.9336 43.3924 29.0796 42.5518 29.0796Z" fill="#D83131"/>
<path d="M50.1518 33.4615C48.7731 33.4615 47.2421 32.7919 46.1448 31.7064C45.3448 30.915 44.391 29.5426 44.391 27.4986C44.391 26.9628 44.8253 26.5283 45.3612 26.5283C45.8972 26.5283 46.3315 26.9628 46.3315 27.4986C46.3315 28.8732 46.972 29.7953 47.5095 30.3269C48.2449 31.0544 49.2784 31.521 50.1503 31.521C50.1629 31.5208 50.175 31.5207 50.1875 31.5207C50.7183 31.5207 51.1518 31.9482 51.1575 32.4805C51.1634 33.0163 50.7337 33.4553 50.1979 33.4612C50.1827 33.4615 50.167 33.4615 50.1518 33.4615Z" fill="#D83131"/>
<path d="M51.6846 41.1907C51.5897 41.1907 51.4946 41.1897 51.3988 41.1877C50.8631 41.1766 50.4378 40.7334 50.4489 40.1976C50.4599 39.6618 50.9005 39.2364 51.439 39.2476C54.2763 39.3067 56.4266 38.3979 57.6592 36.6205C57.9646 36.1802 58.5693 36.0708 59.0096 36.3762C59.4499 36.6815 59.5593 37.2861 59.2539 37.7264C57.7002 39.9665 55.0197 41.1907 51.6846 41.1907Z" fill="#D83131"/>
<path d="M40.3097 56.2906C40.3062 56.2906 40.3026 56.2906 40.2991 56.2906C39.7632 56.2848 39.3335 55.8458 39.3392 55.3099C39.3965 49.9792 42.4448 46.9171 48.6585 45.9487C49.1889 45.8662 49.6842 46.2286 49.7666 46.758C49.8492 47.2874 49.4869 47.7835 48.9574 47.8661C42.2121 48.9174 41.3111 52.4075 41.2799 55.3308C41.274 55.8629 40.8408 56.2906 40.3097 56.2906Z" fill="#D83131"/>
<path d="M43.1153 42.288C41.5305 42.288 39.7682 41.5158 38.5033 40.2643C37.5821 39.3532 36.4843 37.7733 36.4843 35.4209C36.4843 34.8851 36.9186 34.4507 37.4545 34.4507C37.9904 34.4507 38.4248 34.8851 38.4248 35.4209C38.4248 37.1039 39.2095 38.2335 39.868 38.8848C40.7686 39.7758 42.0392 40.3473 43.1143 40.3473C43.1287 40.3473 43.1431 40.3472 43.1574 40.3471C43.6884 40.3471 44.1217 40.7747 44.1274 41.307C44.1331 41.8428 43.7035 42.2818 43.1677 42.2876C43.1502 42.2878 43.1328 42.288 43.1153 42.288Z" fill="#D83131"/>
<path fill-rule="evenodd" clip-rule="evenodd" d="M31.9999 3.73246V56.6636C31.9918 59.3449 30.56 61.445 28.5048 62.7584C27.2166 63.5817 25.7076 63.9923 24.1786 63.9923H22.4207C19.4968 63.9923 16.7548 62.4577 15.3273 59.906C15.2813 59.8239 15.2363 59.7404 15.1924 59.6558C11.0616 59.3246 7.51042 54.1513 8.74977 49.0334C4.57766 48.7268 2.05622 40.7383 5.54404 37.1742C2.71089 34.2582 2.71089 26.0925 7.17409 24.672C4.57766 19.9087 7.5143 13.9422 12.918 13.7572C10.8546 10.7132 11.9787 4.67297 17.6955 4.68071C21.6531 -1.75799 28.5316 -1.04258 31.9999 3.73246Z" fill="#F47C7C"/>
<path d="M20.8844 42.288C20.8669 42.288 20.8496 42.2878 20.8323 42.2876C20.2964 42.2818 19.8667 41.8428 19.8725 41.307C19.8782 40.7712 20.3183 40.3381 20.8531 40.3472C21.934 40.3575 23.222 39.7848 24.1317 38.8848C24.7901 38.2335 25.5749 37.1039 25.5749 35.4209C25.5749 34.8851 26.0094 34.4507 26.5452 34.4507C27.081 34.4507 27.5154 34.8851 27.5154 35.4209C27.5154 37.7731 26.4176 39.3531 25.4964 40.2643C24.2315 41.5158 22.469 42.288 20.8844 42.288Z" fill="#E94444"/>
<path d="M31.9991 21.7386C31.8499 21.7386 31.6986 21.7041 31.5567 21.6313C31.08 21.3865 30.8919 20.8016 31.1368 20.325C33.0294 16.6386 36.6231 14.8346 40.5156 15.6179C41.0411 15.7235 41.3813 16.235 41.2755 16.7604C41.1699 17.2857 40.6585 17.626 40.1331 17.5203C36.5404 16.7982 34.0224 18.9533 32.8631 21.2113C32.6911 21.5461 32.3513 21.7386 31.9991 21.7386Z" fill="#D83131"/>
<path d="M31.9999 18.9279V21.739C31.6467 21.739 31.3091 21.5463 31.137 21.2112C29.9779 18.9537 27.4591 16.7985 23.8665 17.5203C23.3413 17.6264 22.8303 17.2862 22.7242 16.7609C22.618 16.2343 22.9583 15.7234 23.4836 15.6173C26.8484 14.9407 29.9881 16.1956 31.9999 18.9279Z" fill="#E94444"/>
<path d="M22.7776 9.07491C22.4294 9.07491 22.0929 8.88705 21.9188 8.55772C20.5316 5.93254 19.1186 5.68445 17.6724 5.6502C17.1368 5.63745 16.7127 5.19288 16.7254 4.6572C16.7382 4.12151 17.1853 3.69869 17.7184 3.71019C19.6382 3.75568 21.8423 4.2595 23.6346 7.65121C23.8849 8.12502 23.7038 8.71195 23.23 8.96242C23.0855 9.03878 22.9304 9.07491 22.7776 9.07491Z" fill="#E94444"/>
<path d="M12.3152 41.1908C8.97976 41.1908 6.29946 39.9667 4.74616 37.7264C4.44082 37.2861 4.55018 36.6816 4.99063 36.3762C5.43107 36.0707 6.0355 36.1803 6.34083 36.6207C7.57331 38.3979 9.72404 39.3072 12.5611 39.2476C13.0971 39.2378 13.5402 39.6618 13.5512 40.1976C13.5622 40.7334 13.137 41.1766 12.6012 41.1877C12.5055 41.1898 12.4098 41.1908 12.3152 41.1908Z" fill="#E94444"/>
<path d="M23.6899 56.2907C23.1589 56.2907 22.7255 55.8632 22.7199 55.3308C22.6887 52.4077 21.7878 48.9175 15.0425 47.8661C14.513 47.7835 14.1507 47.2875 14.2332 46.758C14.3158 46.2285 14.8128 45.8661 15.3413 45.9487C21.5551 46.9173 24.6034 49.9794 24.6604 55.3101C24.6662 55.8459 24.2365 56.2849 23.7005 56.2906C23.697 56.2907 23.6934 56.2907 23.6899 56.2907Z" fill="#E94444"/>
<path d="M26.697 25.0576C26.274 24.7287 25.6645 24.8049 25.3354 25.228C23.959 26.9978 21.7822 27.5857 19.5127 26.801C17.3875 26.0662 15.2492 23.9961 15.2635 21.0276C15.266 20.4918 14.8337 20.0554 14.2979 20.0527C14.2962 20.0527 14.2947 20.0527 14.2931 20.0527C13.7594 20.0527 13.3256 20.4841 13.323 21.0184C13.3088 23.9739 14.9935 26.6717 17.6261 28.0857C17.477 29.14 16.9472 29.8753 16.4903 30.3271C15.7474 31.0619 14.7058 31.5277 13.823 31.5211C13.2884 31.5146 12.8482 31.9449 12.8423 32.4807C12.8365 33.0165 13.2661 33.4556 13.8019 33.4615C13.8173 33.4616 13.8327 33.4617 13.8479 33.4617C15.2266 33.4617 16.7577 32.792 17.855 31.7067C18.4693 31.0991 19.1724 30.1474 19.4667 28.8138C20.1345 28.9914 20.7992 29.0796 21.4486 29.0796C23.567 29.0796 25.5198 28.1522 26.8673 26.4193C27.1963 25.9961 27.12 25.3865 26.697 25.0576Z" fill="#E94444"/>
</g>
<defs>
<clipPath id="clip0_376_507">
<rect width="64" height="64" fill="white"/>
</clipPath>
</defs>
</svg>
