<svg width="64" height="64" viewBox="0 0 64 64" fill="none" xmlns="http://www.w3.org/2000/svg">
<rect width="64" height="64" fill="white"/>
<g clip-path="url(#clip0_378_5780)">
<path d="M31.313 44.0001H17.5994C16.2739 44.0001 15.1995 42.9256 15.1995 41.6002V39.2002H33.6183L31.313 44.0001Z" fill="#D3DCFB"/>
<path d="M46.4018 24.7999V34.8825V41.5998H17.5994C16.2739 41.5998 15.1995 40.5252 15.1995 39.1998V24.7999L32.0006 18.7998L46.4018 24.7999Z" fill="#EBF5FC"/>
<path d="M19.4377 29.6002H18.1627C17.8521 29.6002 17.6002 29.3483 17.6002 29.0377V27.7627C17.6002 27.4521 17.8521 27.2002 18.1627 27.2002H19.4377C19.7483 27.2002 20.0002 27.4521 20.0002 27.7627V29.0377C20.0002 29.3483 19.7483 29.6002 19.4377 29.6002Z" fill="#3C58A0"/>
<path d="M24.2377 29.6002H22.9628C22.6521 29.6002 22.4003 29.3483 22.4003 29.0377V27.7627C22.4003 27.4521 22.6521 27.2002 22.9628 27.2002H24.2377C24.5484 27.2002 24.8002 27.4521 24.8002 27.7627V29.0377C24.8002 29.3483 24.5484 29.6002 24.2377 29.6002Z" fill="#3C58A0"/>
<path d="M29.0377 29.6002H27.7627C27.4521 29.6002 27.2002 29.3483 27.2002 29.0377V27.7627C27.2002 27.4521 27.4521 27.2002 27.7627 27.2002H29.0377C29.3483 27.2002 29.6002 27.4521 29.6002 27.7627V29.0377C29.6002 29.3483 29.3484 29.6002 29.0377 29.6002Z" fill="#3C58A0"/>
<path d="M33.8377 29.6002H32.5627C32.2521 29.6002 32.0002 29.3483 32.0002 29.0377V27.7627C32.0002 27.4521 32.2521 27.2002 32.5627 27.2002H33.8377C34.1484 27.2002 34.4002 27.4521 34.4002 27.7627V29.0377C34.4002 29.3483 34.1484 29.6002 33.8377 29.6002Z" fill="#3C58A0"/>
<path d="M38.6369 29.6002H37.3619C37.0512 29.6002 36.7994 29.3483 36.7994 29.0377V27.7627C36.7994 27.4521 37.0512 27.2002 37.3619 27.2002H38.6369C38.9475 27.2002 39.1994 27.4521 39.1994 27.7627V29.0377C39.1994 29.3483 38.9476 29.6002 38.6369 29.6002Z" fill="#3C58A0"/>
<path d="M43.4369 29.6002H42.1619C41.8513 29.6002 41.5994 29.3483 41.5994 29.0377V27.7627C41.5994 27.4521 41.8513 27.2002 42.1619 27.2002H43.4369C43.7475 27.2002 43.9994 27.4521 43.9994 27.7627V29.0377C43.9994 29.3483 43.7475 29.6002 43.4369 29.6002Z" fill="#3C58A0"/>
<path d="M19.4377 34.4H18.1627C17.8521 34.4 17.6002 34.1481 17.6002 33.8375V32.5625C17.6002 32.2519 17.8521 32 18.1627 32H19.4377C19.7483 32 20.0002 32.2519 20.0002 32.5625V33.8375C20.0002 34.1482 19.7483 34.4 19.4377 34.4Z" fill="#3C58A0"/>
<path d="M24.2377 34.4H22.9628C22.6521 34.4 22.4003 34.1481 22.4003 33.8375V32.5625C22.4003 32.2519 22.6521 32 22.9628 32H24.2377C24.5484 32 24.8002 32.2519 24.8002 32.5625V33.8375C24.8002 34.1482 24.5484 34.4 24.2377 34.4Z" fill="#3C58A0"/>
<path d="M29.0377 34.4H27.7627C27.4521 34.4 27.2002 34.1481 27.2002 33.8375V32.5625C27.2002 32.2519 27.4521 32 27.7627 32H29.0377C29.3483 32 29.6002 32.2519 29.6002 32.5625V33.8375C29.6002 34.1482 29.3484 34.4 29.0377 34.4Z" fill="#3C58A0"/>
<path d="M34.4002 34.4V32.6C34.4002 32.2686 34.1316 32 33.8002 32H32.6002C32.2688 32 32.0002 32.2686 32.0002 32.6V33.8C32.0002 34.1314 32.2689 34.4 32.6002 34.4H34.4002Z" fill="#3C58A0"/>
<path d="M19.4377 39.2003H18.1627C17.8521 39.2003 17.6002 38.9484 17.6002 38.6378V37.3628C17.6002 37.0522 17.8521 36.8003 18.1627 36.8003H19.4377C19.7483 36.8003 20.0002 37.0522 20.0002 37.3628V38.6378C20.0002 38.9484 19.7483 39.2003 19.4377 39.2003Z" fill="#3C58A0"/>
<path d="M24.2377 39.2003H22.9628C22.6521 39.2003 22.4003 38.9484 22.4003 38.6378V37.3628C22.4003 37.0522 22.6521 36.8003 22.9628 36.8003H24.2377C24.5484 36.8003 24.8002 37.0522 24.8002 37.3628V38.6378C24.8002 38.9484 24.5484 39.2003 24.2377 39.2003Z" fill="#3C58A0"/>
<path d="M29.0377 39.2003H27.7627C27.4521 39.2003 27.2002 38.9484 27.2002 38.6378V37.3628C27.2002 37.0522 27.4521 36.8003 27.7627 36.8003H29.0377C29.3483 36.8003 29.6002 37.0522 29.6002 37.3628V38.6378C29.6002 38.9484 29.3484 39.2003 29.0377 39.2003Z" fill="#3C58A0"/>
<path d="M43.4199 27.2002H42.1789C42.1038 27.2002 42.0323 27.215 41.9664 27.2409C42.1812 27.3257 42.3334 27.5347 42.3334 27.7796V29.0207C42.3334 29.2656 42.1812 29.4746 41.9664 29.5594C42.0323 29.5854 42.1038 29.6002 42.1789 29.6002H43.4199C43.74 29.6002 43.9994 29.3407 43.9994 29.0207V27.7797C43.9994 27.4596 43.7399 27.2002 43.4199 27.2002Z" fill="#2A428C"/>
<path d="M38.6199 27.2002H37.3789C37.3038 27.2002 37.2323 27.215 37.1664 27.2409C37.3812 27.3257 37.5334 27.5347 37.5334 27.7796V29.0207C37.5334 29.2656 37.3812 29.4746 37.1664 29.5594C37.2323 29.5854 37.3038 29.6002 37.3789 29.6002H38.6199C38.94 29.6002 39.1994 29.3407 39.1994 29.0207V27.7797C39.1994 27.4596 38.94 27.2002 38.6199 27.2002Z" fill="#2A428C"/>
<path d="M33.8207 27.2002H32.5797C32.5046 27.2002 32.4331 27.215 32.3672 27.2409C32.5821 27.3257 32.7343 27.5347 32.7343 27.7796V29.0207C32.7343 29.2656 32.5821 29.4746 32.3672 29.5594C32.4331 29.5854 32.5046 29.6002 32.5797 29.6002H33.8207C34.1408 29.6002 34.4003 29.3407 34.4003 29.0207V27.7797C34.4002 27.4596 34.1407 27.2002 33.8207 27.2002Z" fill="#2A428C"/>
<path d="M29.0207 27.2002H27.7797C27.7046 27.2002 27.6331 27.215 27.5672 27.2409C27.782 27.3257 27.9342 27.5347 27.9342 27.7796V29.0207C27.9342 29.2656 27.782 29.4746 27.5672 29.5594C27.6331 29.5854 27.7046 29.6002 27.7797 29.6002H29.0207C29.3408 29.6002 29.6002 29.3407 29.6002 29.0207V27.7797C29.6001 27.4596 29.3408 27.2002 29.0207 27.2002Z" fill="#2A428C"/>
<path d="M24.2207 27.2002H22.9797C22.9046 27.2002 22.8331 27.215 22.7672 27.2409C22.982 27.3257 23.1342 27.5347 23.1342 27.7796V29.0207C23.1342 29.2656 22.9819 29.4746 22.7672 29.5594C22.8331 29.5854 22.9046 29.6002 22.9797 29.6002H24.2207C24.5408 29.6002 24.8002 29.3407 24.8002 29.0207V27.7797C24.8002 27.4596 24.5408 27.2002 24.2207 27.2002Z" fill="#2A428C"/>
<path d="M19.4207 27.2002H18.1797C18.1046 27.2002 18.0331 27.215 17.9672 27.2409C18.182 27.3257 18.3343 27.5347 18.3343 27.7796V29.0207C18.3343 29.2656 18.182 29.4746 17.9672 29.5594C18.0331 29.5854 18.1046 29.6002 18.1797 29.6002H19.4207C19.7408 29.6002 20.0002 29.3407 20.0002 29.0207V27.7797C20.0002 27.4596 19.7407 27.2002 19.4207 27.2002Z" fill="#2A428C"/>
<path d="M19.4207 32H18.1797C18.1046 32 18.0331 32.0148 17.9672 32.0407C18.182 32.1255 18.3343 32.3345 18.3343 32.5794V33.8205C18.3343 34.0655 18.182 34.2745 17.9672 34.3593C18.0331 34.3853 18.1046 34.4 18.1797 34.4H19.4207C19.7408 34.4 20.0002 34.1406 20.0002 33.8206V32.5795C20.0002 32.2595 19.7407 32 19.4207 32Z" fill="#2A428C"/>
<path d="M19.4207 36.7998H18.1797C18.1046 36.7998 18.0331 36.8146 17.9672 36.8405C18.182 36.9253 18.3343 37.1343 18.3343 37.3792V38.6203C18.3343 38.8653 18.182 39.0743 17.9672 39.1591C18.0331 39.1851 18.1046 39.1999 18.1797 39.1999H19.4207C19.7408 39.1999 20.0002 38.9404 20.0002 38.6204V37.3793C20.0002 37.0592 19.7407 36.7998 19.4207 36.7998Z" fill="#2A428C"/>
<path d="M24.2207 32H22.9797C22.9046 32 22.8331 32.0148 22.7672 32.0407C22.982 32.1255 23.1342 32.3345 23.1342 32.5794V33.8205C23.1342 34.0655 22.9819 34.2745 22.7672 34.3593C22.8331 34.3853 22.9046 34.4 22.9797 34.4H24.2207C24.5408 34.4 24.8002 34.1406 24.8002 33.8206V32.5795C24.8002 32.2595 24.5408 32 24.2207 32Z" fill="#2A428C"/>
<path d="M24.2207 36.7998H22.9797C22.9046 36.7998 22.8331 36.8146 22.7672 36.8405C22.982 36.9253 23.1342 37.1343 23.1342 37.3792V38.6203C23.1342 38.8653 22.9819 39.0743 22.7672 39.1591C22.8331 39.1851 22.9046 39.1999 22.9797 39.1999H24.2207C24.5408 39.1999 24.8002 38.9404 24.8002 38.6204V37.3793C24.8002 37.0592 24.5408 36.7998 24.2207 36.7998Z" fill="#2A428C"/>
<path d="M29.0207 32H27.7797C27.7046 32 27.6331 32.0148 27.5672 32.0407C27.782 32.1255 27.9342 32.3345 27.9342 32.5794V33.8205C27.9342 34.0655 27.782 34.2745 27.5672 34.3593C27.6331 34.3853 27.7046 34.4 27.7797 34.4H29.0207C29.3408 34.4 29.6002 34.1406 29.6002 33.8206V32.5795C29.6001 32.2595 29.3408 32 29.0207 32Z" fill="#2A428C"/>
<path d="M34.4002 34.4V32.5794C34.4002 32.2594 34.1408 32 33.8207 32H32.5797C32.5046 32 32.4331 32.0148 32.3672 32.0407C32.582 32.1255 32.7342 32.3345 32.7342 32.5794V33.8205C32.7342 34.0655 32.582 34.2745 32.3672 34.3593C32.4331 34.3853 32.5046 34.4 32.5797 34.4H34.4002V34.4Z" fill="#2A428C"/>
<path d="M29.0207 36.7998H27.7797C27.7046 36.7998 27.6331 36.8146 27.5672 36.8405C27.782 36.9253 27.9342 37.1343 27.9342 37.3792V38.6203C27.9342 38.8653 27.782 39.0743 27.5672 39.1591C27.6331 39.1851 27.7046 39.1999 27.7797 39.1999H29.0207C29.3408 39.1999 29.6002 38.9404 29.6002 38.6204V37.3793C29.6001 37.0592 29.3408 36.7998 29.0207 36.7998Z" fill="#2A428C"/>
<path d="M44.7346 24.1055V34.8828V41.6001H46.4018V34.8828V24.8001L44.7346 24.1055Z" fill="#D3DCFB"/>
<path d="M46.4018 24.7999V18.7998C46.4018 17.4743 45.3272 16.3999 44.0019 16.3999H17.5994C16.2739 16.3999 15.1995 17.4743 15.1995 18.7998V24.7999H46.4018Z" fill="#FF4155"/>
<path d="M22.7616 19.3433H21.1994C20.8993 19.3433 20.6562 19.1001 20.6562 18.8001C20.6562 18.5 20.8994 18.2568 21.1994 18.2568H22.7616C23.0617 18.2568 23.3048 18.5 23.3048 18.8001C23.3048 19.1001 23.0616 19.3433 22.7616 19.3433Z" fill="#E80054"/>
<path d="M26.5993 19.3433H25.0372C24.7371 19.3433 24.494 19.1001 24.494 18.8001C24.494 18.5 24.7372 18.2568 25.0372 18.2568H26.5993C26.8994 18.2568 27.1426 18.5 27.1426 18.8001C27.1426 19.1001 26.8994 19.3433 26.5993 19.3433Z" fill="#E80054"/>
<path d="M36.5623 19.3433H35.0001C34.7001 19.3433 34.4569 19.1001 34.4569 18.8001C34.4569 18.5 34.7001 18.2568 35.0001 18.2568H36.5623C36.8624 18.2568 37.1056 18.5 37.1056 18.8001C37.1056 19.1001 36.8624 19.3433 36.5623 19.3433Z" fill="#E80054"/>
<path d="M40.4002 19.3433H38.838C38.5379 19.3433 38.2948 19.1001 38.2948 18.8001C38.2948 18.5 38.538 18.2568 38.838 18.2568H40.4002C40.7003 18.2568 40.9435 18.5 40.9435 18.8001C40.9435 19.1001 40.7003 19.3433 40.4002 19.3433Z" fill="#E80054"/>
<path d="M25.3994 18.5C25.3994 19.3284 24.7279 20 23.8995 20C23.071 20 22.3995 19.3284 22.3995 18.5V15.5C22.3994 14.6716 23.071 14 23.8994 14C24.7278 14 25.3994 14.6716 25.3994 15.5V18.5H25.3994Z" fill="#EBF5FC"/>
<path d="M39.2002 18.5C39.2002 19.3284 38.5287 20 37.7002 20C36.8718 20 36.2002 19.3284 36.2002 18.5V15.5C36.2002 14.6716 36.8718 14 37.7002 14C38.5286 14 39.2001 14.6716 39.2001 15.5V18.5H39.2002Z" fill="#EBF5FC"/>
<path d="M37.7002 14C37.3922 14 37.1062 14.0931 36.868 14.2523C37.2705 14.5213 37.5358 14.9795 37.5358 15.5V18.5C37.5358 19.0205 37.2705 19.4788 36.868 19.7478C37.1061 19.9069 37.3922 20 37.7002 20C38.5286 20 39.2002 19.3285 39.2002 18.5001V15.5C39.2002 14.6716 38.5287 14 37.7002 14Z" fill="#D3DCFB"/>
<path d="M23.8994 14C23.5914 14 23.3054 14.0931 23.0671 14.2523C23.4697 14.5213 23.735 14.9795 23.735 15.5V18.5C23.735 19.0205 23.4697 19.4788 23.0671 19.7478C23.3053 19.9069 23.5914 20 23.8994 20C24.7278 20 25.3993 19.3285 25.3993 18.5001V15.5C25.3994 14.6716 24.7278 14 23.8994 14Z" fill="#D3DCFB"/>
<path d="M44.0019 16.3999H42.3353C43.6607 16.3999 44.7352 17.4743 44.7352 18.7998V24.7999H46.4017V18.7999C46.4018 17.4744 45.3273 16.3999 44.0019 16.3999Z" fill="#E80054"/>
<path d="M15.1994 21.8569H46.4018V22.9435H15.1994V21.8569Z" fill="#E80054"/>
<path d="M39.8006 50C44.7712 50 48.8006 45.9706 48.8006 41C48.8006 36.0294 44.7712 32 39.8006 32C34.83 32 30.8006 36.0294 30.8006 41C30.8006 45.9706 34.83 50 39.8006 50Z" fill="#4FABF7"/>
<path d="M39.8006 47.5999C43.4457 47.5999 46.4007 44.645 46.4007 40.9999C46.4007 37.3548 43.4457 34.3999 39.8006 34.3999C36.1556 34.3999 33.2006 37.3548 33.2006 40.9999C33.2006 44.645 36.1556 47.5999 39.8006 47.5999Z" fill="#EBF5FC"/>
<path d="M39.8006 40.3433C39.5005 40.3433 39.2574 40.1001 39.2574 39.8001V36.8001C39.2574 36.5 39.5006 36.2568 39.8006 36.2568C40.1007 36.2568 40.3439 36.5 40.3439 36.8001V39.8001C40.3439 40.1001 40.1006 40.3433 39.8006 40.3433Z" fill="#3C58A0"/>
<path d="M42.8006 41.543H41.0006C40.7005 41.543 40.4573 41.2998 40.4573 40.9998C40.4573 40.6998 40.7005 40.4565 41.0006 40.4565H42.8006C43.1007 40.4565 43.3439 40.6998 43.3439 40.9998C43.3439 41.2998 43.1007 41.543 42.8006 41.543Z" fill="#3C58A0"/>
<path d="M39.8006 32C39.5197 32 39.242 32.0136 38.9676 32.0387C43.5475 32.4591 47.1345 36.3104 47.1345 41C47.1345 45.6896 43.5475 49.5409 38.9675 49.9613C39.2419 49.9864 39.5196 50 39.8005 50C44.7711 50 48.8005 45.9705 48.8005 41C48.8005 36.0295 44.7711 32 39.8006 32Z" fill="#1886EA"/>
<path d="M39.8006 34.3999C39.5187 34.3999 39.2409 34.4177 38.9682 34.452C42.2203 34.8613 44.7358 37.6368 44.7358 40.9999C44.7358 44.363 42.2203 47.1386 38.9682 47.5478C39.2409 47.5822 39.5187 47.5999 39.8006 47.5999C43.4457 47.5999 46.4007 44.645 46.4007 40.9999C46.4007 37.3549 43.4457 34.3999 39.8006 34.3999Z" fill="#D3DCFB"/>
<path d="M39.8006 42.1998C40.4634 42.1998 41.0006 41.6626 41.0006 40.9998C41.0006 40.3371 40.4634 39.7998 39.8006 39.7998C39.1379 39.7998 38.6006 40.3371 38.6006 40.9998C38.6006 41.6626 39.1379 42.1998 39.8006 42.1998Z" fill="#FFDD40"/>
</g>
<defs>
<clipPath id="clip0_378_5780">
<rect width="36" height="36" fill="white" transform="translate(14 14)"/>
</clipPath>
</defs>
</svg>
