<svg width="31" height="31" viewBox="0 0 31 31" fill="none" xmlns="http://www.w3.org/2000/svg">
<path d="M23.6292 13.8676C22.9842 13.8676 22.4742 13.3426 22.4742 12.7126C22.4742 12.1576 21.9192 11.0026 20.9892 9.99758C20.0742 9.02258 19.0692 8.45258 18.2292 8.45258C17.5842 8.45258 17.0742 7.92758 17.0742 7.29758C17.0742 6.66758 17.5992 6.14258 18.2292 6.14258C19.7292 6.14258 21.3042 6.95258 22.6842 8.40758C23.9742 9.77258 24.7992 11.4676 24.7992 12.6976C24.7992 13.3426 24.2742 13.8676 23.6292 13.8676Z" fill="#312E81"/>
<path d="M29.0444 13.8672C28.3994 13.8672 27.8894 13.3422 27.8894 12.7122C27.8894 7.38719 23.5544 3.06719 18.2444 3.06719C17.5994 3.06719 17.0894 2.54219 17.0894 1.91219C17.0894 1.28219 17.5994 0.742188 18.2294 0.742188C24.8294 0.742188 30.1994 6.11219 30.1994 12.7122C30.1994 13.3422 29.6744 13.8672 29.0444 13.8672Z" fill="#312E81"/>
<path opacity="0.4" d="M14.8842 19.0572L9.97923 23.9622C9.43923 23.4822 8.91423 22.9872 8.40423 22.4772C6.85923 20.9172 5.46422 19.2822 4.21922 17.5722C2.98922 15.8622 1.99922 14.1522 1.27922 12.4572C0.559219 10.7472 0.199219 9.1122 0.199219 7.5522C0.199219 6.53219 0.379219 5.55719 0.739219 4.65719C1.09922 3.74219 1.66922 2.90219 2.46422 2.15219C3.42422 1.20719 4.47422 0.742188 5.58423 0.742188C6.00423 0.742188 6.42423 0.832188 6.79923 1.01219C7.18923 1.19219 7.53423 1.46219 7.80423 1.85219L11.2842 6.75719C11.5542 7.13219 11.7492 7.4772 11.8842 7.8072C12.0192 8.1222 12.0942 8.4372 12.0942 8.7222C12.0942 9.0822 11.9892 9.4422 11.7792 9.7872C11.5842 10.1322 11.2992 10.4922 10.9392 10.8522L9.79923 12.0372C9.63423 12.2022 9.55923 12.3972 9.55923 12.6372C9.55923 12.7572 9.57423 12.8622 9.60423 12.9822C9.64923 13.1022 9.69423 13.1922 9.72423 13.2822C9.99423 13.7772 10.4592 14.4222 11.1192 15.2022C11.7942 15.9822 12.5142 16.7772 13.2942 17.5722C13.8342 18.0972 14.3592 18.6072 14.8842 19.0572Z" fill="#312E81"/>
<path d="M30.1541 25.2377C30.1541 25.6577 30.0791 26.0927 29.9291 26.5127C29.8841 26.6327 29.8391 26.7527 29.7791 26.8727C29.5241 27.4127 29.1941 27.9227 28.7591 28.4027C28.0241 29.2127 27.2141 29.7977 26.2991 30.1727C26.2841 30.1727 26.2691 30.1877 26.2541 30.1877C25.3691 30.5477 24.4091 30.7427 23.3741 30.7427C21.8441 30.7427 20.2091 30.3827 18.4841 29.6477C16.7591 28.9127 15.0341 27.9227 13.3241 26.6777C12.7391 26.2427 12.1541 25.8077 11.5991 25.3427L16.5041 20.4377C16.9241 20.7527 17.2991 20.9927 17.6141 21.1577C17.6891 21.1877 17.7791 21.2327 17.8841 21.2777C18.0041 21.3227 18.1241 21.3377 18.2591 21.3377C18.5141 21.3377 18.7091 21.2477 18.8741 21.0827L20.0141 19.9577C20.3891 19.5827 20.7491 19.2977 21.0941 19.1177C21.4391 18.9077 21.7841 18.8027 22.1591 18.8027C22.4441 18.8027 22.7441 18.8627 23.0741 18.9977C23.4041 19.1327 23.7491 19.3277 24.1241 19.5827L29.0891 23.1077C29.4791 23.3777 29.7491 23.6927 29.9141 24.0677C30.0641 24.4427 30.1541 24.8177 30.1541 25.2377Z" fill="#312E81"/>
</svg>
