<svg width="36" height="36" viewBox="0 0 36 36" fill="none" xmlns="http://www.w3.org/2000/svg">
<path d="M34.7365 18.2538L23.5073 30.5169C22.1402 32.0077 20.4779 33.1977 18.626 34.0114C16.7742 34.8251 14.7734 35.2446 12.7507 35.2434H6.53524C4.98814 35.2434 3.50441 34.6288 2.41045 33.5349C1.31649 32.4409 0.701904 30.9572 0.701904 29.4101V22.1184C0.701904 20.5713 1.31649 19.0876 2.41045 17.9936C3.50441 16.8997 4.98814 16.2851 6.53524 16.2851H17.8913C18.3733 16.286 18.8491 16.3947 19.2838 16.6031C19.7184 16.8116 20.101 17.1146 20.4035 17.4899C20.706 17.8652 20.9208 18.3034 21.0321 18.7724C21.1435 19.2415 21.1486 19.7294 21.0471 20.2007C20.8892 20.8599 20.5336 21.4551 20.028 21.9065C19.5223 22.358 18.8908 22.6441 18.2179 22.7265L12.1469 23.5767C11.7643 23.6316 11.4191 23.8362 11.1872 24.1455C10.9553 24.4547 10.8557 24.8434 10.9102 25.2261C10.9648 25.609 11.1692 25.9546 11.4785 26.1868C11.7878 26.419 12.1767 26.5188 12.5596 26.4642L18.7604 25.5892C20.2209 25.3741 21.556 24.6429 22.5237 23.5281C23.4914 22.4132 24.0276 20.9886 24.0352 19.5124C24.0281 19.2002 23.9964 18.8891 23.9404 18.5819L29.1059 13.1322C29.787 12.3946 30.7323 11.9565 31.7354 11.9136C32.7385 11.8707 33.7178 12.2265 34.4594 12.9032C35.1973 13.5795 35.6399 14.5186 35.6917 15.5181C35.7435 16.5177 35.4005 17.4976 34.7365 18.2465V18.2538Z" fill="#312E81"/>
<path opacity="0.7" d="M24.0353 4.25456C24.0353 7.40893 19.9228 11.3289 17.8738 12.9725C17.5532 13.2295 17.1545 13.3696 16.7436 13.3696C16.3327 13.3696 15.934 13.2295 15.6134 12.9725C13.5644 11.3275 9.45194 7.40893 9.45194 4.25456C9.40595 3.23988 9.76371 2.24828 10.447 1.49671C11.1302 0.745138 12.0833 0.294772 13.0978 0.244141C14.1122 0.294772 15.0653 0.745138 15.7486 1.49671C16.3534 2.16203 16.7032 3.01543 16.7436 3.90644C16.784 3.01543 17.1338 2.16203 17.7386 1.49671C18.4219 0.745138 19.375 0.294772 20.3894 0.244141C21.4039 0.294772 22.357 0.745138 23.0403 1.49671C23.7235 2.24828 24.0813 3.23988 24.0353 4.25456Z" fill="#312E81"/>
</svg>
