<svg width="50" height="51" viewBox="0 0 50 51" fill="none" xmlns="http://www.w3.org/2000/svg">
<path d="M23.8633 41.0722V50.9998H3.08163C2.48448 46.4611 1.88733 41.9392 1.28418 37.3565C2.87608 37.3565 4.42897 37.3489 5.98035 37.3732C6.09588 37.3763 6.25792 37.5949 6.31194 37.7437C7.40571 40.7867 8.70804 43.7568 9.38771 46.941C9.41321 47.0639 9.47623 47.1778 9.64277 47.3008C9.74329 46.7086 9.88133 46.1195 9.93684 45.5242C10.1094 43.6156 10.2699 41.7069 10.4005 39.7967C10.5565 37.5266 12.4005 35.6544 14.6435 35.5435C15.0711 35.5223 15.5017 35.5405 15.8978 35.5405C16.3209 37.1075 16.675 38.6563 17.1687 40.1581C17.5197 41.2286 18.0209 42.2581 18.531 43.2663C18.8941 43.9876 19.4012 44.0696 20.0689 43.6262C21.3172 42.7941 22.558 41.9513 23.8633 41.0722Z" fill="#0E82FD"/>
<path d="M36.52 50.9992V46.4986H34.7331V50.981H25.7354V41.0777C25.9379 41.2083 26.1029 41.3116 26.265 41.4209C27.3408 42.1452 28.4135 42.8756 29.4923 43.5968C30.214 44.0797 30.6626 43.981 31.1127 43.2157C32.247 41.2873 32.8321 39.1523 33.3528 36.9961C33.4548 36.5755 33.5448 36.1519 33.6663 35.6113C34.5486 35.8163 35.4038 36.0137 36.352 36.2354C35.0977 38.0515 35.6783 39.8296 36.1104 41.5894C36.454 42.9894 36.9777 44.3029 37.7864 45.5298C38.5996 46.7628 38.7346 48.2645 38.9702 49.704C39.0377 50.114 39.0707 50.5285 39.1262 50.9992H36.52Z" fill="#0E82FD"/>
<path d="M33.3924 16.741C31.9895 16.0228 30.7457 15.0738 29.7525 13.8408C29.0248 12.9358 28.3991 11.9443 27.7375 11.0059C25.1343 15.6174 21.1373 18.0393 15.916 18.2504V22.7419H33.5604C33.6084 22.4656 33.6835 22.2256 33.691 21.9812C33.736 20.4673 33.757 18.9504 33.811 17.4365C33.823 17.0812 33.7045 16.9005 33.3924 16.741ZM20.3121 21.635C19.4569 21.6426 18.7367 20.9243 18.7292 20.0573C18.7217 19.1918 19.4314 18.4614 20.2881 18.4553C21.1448 18.4478 21.865 19.1645 21.871 20.033C21.8785 20.9 21.1703 21.6274 20.3121 21.635ZM29.2979 21.635C28.4411 21.6319 27.7285 20.9076 27.7315 20.0406C27.733 19.1736 28.4501 18.4523 29.3069 18.4553C30.1651 18.4569 30.8763 19.1812 30.8733 20.0497C30.8703 20.9183 30.1546 21.638 29.2979 21.635Z" fill="#0E82FD"/>
<path d="M49.9981 38.4824C49.9575 40.2104 49.5404 41.8822 48.7662 43.3991C48.2216 44.4681 48.0326 45.569 47.869 46.7078C47.7205 47.7388 47.599 48.7744 47.4384 49.8039C47.3439 50.4067 47.0153 50.6922 46.5187 50.6785C46.0026 50.6649 45.6965 50.3323 45.641 49.693C45.5464 48.6165 45.4639 47.5384 45.3754 46.4618C45.3094 45.6434 44.9673 45.1863 44.2456 44.9509C43.5449 44.7201 42.7647 44.9297 42.3311 45.534C42.1676 45.7633 42.0821 46.0822 42.0521 46.3707C41.941 47.4458 41.8675 48.5238 41.7805 49.6019C41.7265 50.2792 41.4354 50.6421 40.9193 50.6724C40.4032 50.7013 40.0626 50.3855 39.9575 49.7052C39.7055 48.0774 39.4879 46.4436 39.2239 44.8173C39.1683 44.4757 38.9913 44.1462 38.8323 43.8288C38.0401 42.2557 37.5734 40.5778 37.4234 38.8346C37.3019 37.3952 37.893 36.8607 39.767 36.8941C40.7677 36.9229 42.1121 37.3542 43.3214 38.1726C43.6485 38.3943 43.905 38.4019 44.2486 38.2546C45.2134 37.8416 46.1826 37.4362 47.1683 37.0793C47.5464 36.9411 47.9725 36.8926 48.3776 36.8834C49.4024 36.8607 50.0221 37.4498 49.9981 38.4824Z" fill="#0E82FD"/>
<path d="M10.3881 26.4353C10.3761 27.0002 9.98599 27.2431 9.48487 27.3813V34.6152H4.08652C4.13003 34.934 4.16454 35.1891 4.20505 35.4883H1.04526C0.868212 34.19 0.686667 32.8811 0.514124 31.5707C0.343081 30.2754 0.175039 28.9787 0.019 27.6819C-0.137039 26.3958 0.632654 25.5227 1.92148 25.5121C2.62815 25.506 3.33483 25.5106 4.08202 25.5106V22.8184H9.46836V25.4392C9.96349 25.6123 10.4016 25.837 10.3881 26.4353Z" fill="#0E82FD"/>
<path d="M43.0605 28.0375C40.8144 26.4067 38.9059 24.6165 37.1475 22.5863C38.1182 22.1445 38.7934 21.4688 39.0815 20.4544C39.4626 19.1061 38.9525 17.7228 37.7582 16.9408C37.4836 16.7601 37.3996 16.5748 37.3966 16.2605C37.3816 14.6115 37.4761 12.9472 37.287 11.3164C36.7784 6.89928 34.4858 3.64829 30.6614 1.48755C30.5158 1.40555 30.3688 1.32507 30.1768 1.21878C32.8759 -0.958667 37.1625 -0.114411 39.0905 2.92248C39.7777 4.00513 40.1062 5.19255 40.1047 6.47564C40.1032 8.84745 40.0942 11.2193 40.1077 13.5896C40.1332 18.3651 41.047 22.9644 42.8144 27.3907C42.8819 27.5608 42.9449 27.7339 43.0605 28.0375Z" fill="#0E82FD"/>
<path d="M35.5105 14.8342C34.6598 8.95179 29.5916 5.24223 24.4273 5.48367C19.347 5.72055 14.8834 9.01253 14.0627 15.9336C13.3305 11.7154 14.5398 7.48953 17.389 4.83681C20.5863 1.86066 24.3462 1.00274 28.4363 2.49689C32.5173 3.988 34.8924 7.04918 35.485 11.4147C35.6471 12.6021 35.5105 13.8336 35.5105 14.8342Z" fill="#0E82FD"/>
<path d="M7.69165 12.6909V20.9285H5.91971V12.7319C3.07199 11.5491 1.8927 9.67682 2.40583 7.21694C2.84544 5.1063 4.77342 3.5909 6.94596 3.65011C9.12901 3.70782 10.9385 5.36444 11.2595 7.62844C11.5116 9.40806 10.6024 11.8968 7.69165 12.6909Z" fill="#0E82FD"/>
<path d="M32.8606 24.623C32.0174 27.4382 28.433 29.9513 25.1277 30.0606C21.4397 30.1821 17.8043 27.8831 16.6025 24.623H32.8606Z" fill="#0E82FD"/>
<path d="M27.1006 7.62727C25.4697 13.698 20.0608 16.5071 15.8643 16.3523C16.2649 10.0887 21.8012 5.80665 27.1006 7.62727Z" fill="#0E82FD"/>
<path d="M28.3972 33.3465C28.3957 33.4513 28.3612 33.5789 28.2982 33.6578C27.1549 35.0593 26.0056 36.4548 24.8038 37.914C24.3987 37.4236 24.0311 36.9787 23.6635 36.5337C22.9674 35.688 22.2832 34.8331 21.5675 34.0055C21.2899 33.6836 21.1684 33.3541 21.1924 32.9305C21.2224 32.4021 21.1999 31.8721 21.1999 31.2678C23.617 32.0801 25.9891 32.1075 28.4017 31.2344C28.4017 31.986 28.4047 32.6663 28.3972 33.3465Z" fill="#0E82FD"/>
<path d="M23.4674 39.1464C22.2071 39.9983 20.9798 40.8258 19.694 41.6929C18.7247 39.6035 18.1891 37.4792 17.793 35.3154C17.772 35.1985 17.838 35.0102 17.928 34.9388C18.3811 34.5774 18.8567 34.2434 19.2228 33.9746C20.6482 35.7117 22.0435 37.4108 23.4674 39.1464Z" fill="#0E82FD"/>
<path d="M31.8664 35.3059C31.4298 37.4772 30.8972 39.6197 29.91 41.6879C28.6391 40.8299 27.3998 39.9948 26.1455 39.1475C27.5679 37.4059 28.9602 35.7052 30.3751 33.9727C30.7532 34.249 31.2273 34.5846 31.6834 34.9445C31.7824 35.0219 31.8874 35.1996 31.8664 35.3059Z" fill="#0E82FD"/>
<path d="M33.6458 14.6685C31.9264 14.257 28.8987 10.1739 28.8896 8.27734C31.4418 9.68798 33.0067 11.7895 33.6458 14.6685Z" fill="#0E82FD"/>
<path d="M13.9751 18.2522V20.9186C13.3345 21.0295 12.8078 20.8822 12.4388 20.3447C12.1237 19.8831 12.1057 19.3835 12.3937 18.9021C12.7478 18.3145 13.291 18.152 13.9751 18.2522Z" fill="#0E82FD"/>
<path d="M37.2048 20.2756C36.8507 20.8648 36.3061 21.0227 35.6279 20.927V18.2591C36.2671 18.1498 36.7967 18.2895 37.1628 18.8331C37.4764 19.2962 37.4944 19.7943 37.2048 20.2756Z" fill="#0E82FD"/>
</svg>
