<svg width="64" height="64" viewBox="0 0 64 64" fill="none" xmlns="http://www.w3.org/2000/svg">
<g clip-path="url(#clip0_376_567)">
<path d="M57.0267 16.5668C56.1975 17.3847 55.549 18.3673 55.123 19.4513C54.697 20.5353 54.5029 21.6965 54.5533 22.8601C55.22 35.8001 43.0867 48.1401 30.06 47.6401C28.8114 47.5957 27.5671 47.8096 26.405 48.2685C25.2429 48.7273 24.1881 49.4213 23.3067 50.3068L12.7067 60.8801L0 48.1801L10.6 37.5735C11.489 36.696 12.1852 35.6428 12.6444 34.4812C13.1035 33.3195 13.3155 32.0749 13.2667 30.8268C12.7467 17.8535 25.0267 5.64678 38 6.33345C39.1635 6.38303 40.3245 6.18859 41.4083 5.76262C42.4922 5.33666 43.4749 4.6886 44.2933 3.86012L45.0667 3.12012L57.7733 15.8201L57.0267 16.5668Z" fill="#FF436C"/>
<path d="M57.0267 16.5667C56.1975 17.3846 55.549 18.3672 55.123 19.4512C54.697 20.5352 54.503 21.6964 54.5534 22.86C55.22 35.8 43.0867 48.14 30.06 47.64C28.8114 47.5956 27.5671 47.8095 26.405 48.2684C25.2429 48.7272 24.1881 49.4212 23.3067 50.3067L12.7067 60.88L10.9 59.08L21.5 48.4867C22.3812 47.6008 23.436 46.9067 24.5981 46.4478C25.7602 45.9889 27.0047 45.7752 28.2534 45.82C41.2934 46.3333 53.4334 34 52.7534 21.06C52.6991 19.895 52.8913 18.7316 53.3175 17.646C53.7437 16.5604 54.3943 15.5769 55.2267 14.76L56 14L57.8067 15.8L57.0267 16.5667Z" fill="#AF2A58"/>
<path d="M46.8667 4.92012L46.12 5.66678C45.3012 6.49627 44.3173 7.14448 43.2321 7.56941C42.1468 7.99434 40.9843 8.1865 39.82 8.13345C26.8067 7.46678 14.5533 19.6801 15.0467 32.6335C15.0918 33.8812 14.8782 35.1247 14.4192 36.2858C13.9603 37.4469 13.266 38.5004 12.38 39.3801L1.80667 50.0001L0 48.1801L10.6 37.5735C11.489 36.696 12.1852 35.6428 12.6444 34.4812C13.1035 33.3195 13.3155 32.0749 13.2667 30.8268C12.7467 17.8535 25.0267 5.64678 38 6.33345C39.1635 6.38303 40.3245 6.18859 41.4083 5.76262C42.4922 5.33666 43.4749 4.6886 44.2933 3.86012L45.0667 3.12012L46.8667 4.92012Z" fill="#FF98B2"/>
<path d="M53.9266 14.4132C52.7702 15.5306 51.8647 16.8813 51.2705 18.3756C50.6762 19.8699 50.4067 21.4735 50.48 23.0799C51.0066 33.2932 41.3333 43.5666 30.8066 43.5666C29.88 43.5666 30.4066 43.5666 29.5266 43.5666C26.0908 43.6196 22.8114 45.0118 20.3866 47.4466L9.81998 57.9999L2.89331 51.0732L13.3733 40.5866C14.6766 39.314 15.7015 37.7847 16.3831 36.0955C17.0648 34.4063 17.3883 32.594 17.3333 30.7733C16.8466 20.2332 27.1266 9.86658 37.8066 10.4132H39.14C41.8979 10.1893 44.4816 8.97442 46.4133 6.99325L47.6533 5.74658L55.14 13.1932L53.9266 14.4132Z" fill="#D22A58"/>
<path d="M34.3333 39.2735C40.854 39.2735 46.14 33.9875 46.14 27.4668C46.14 20.9462 40.854 15.6602 34.3333 15.6602C27.8127 15.6602 22.5267 20.9462 22.5267 27.4668C22.5267 33.9875 27.8127 39.2735 34.3333 39.2735Z" fill="#9B2A58"/>
<path d="M36 40.4269C35.4054 41.0248 34.6862 41.4841 33.8938 41.7722C33.1013 42.0604 32.255 42.1701 31.4153 42.0937C30.5755 42.0173 29.763 41.7567 29.0355 41.3303C28.308 40.9039 27.6836 40.3222 27.2066 39.6269L22.1066 44.6669L21.4866 42.4402H19.7666V39.5802H15.3933L21.2533 33.7135C20.5604 33.2345 19.9812 32.6091 19.5568 31.8814C19.1324 31.1537 18.8732 30.3416 18.7975 29.5026C18.7218 28.6637 18.8315 27.8183 19.1188 27.0264C19.4061 26.2345 19.8639 25.5155 20.46 24.9202C24.7333 20.6335 32.0266 25.0869 29.94 30.9202C31.169 30.4851 32.5094 30.4803 33.7415 30.9066C34.9735 31.333 36.0243 32.1651 36.7216 33.2668C37.4188 34.3685 37.7212 35.6743 37.5792 36.9703C37.4372 38.2663 36.8592 39.4757 35.94 40.4002L36 40.4269Z" fill="#E6E7E8"/>
<path d="M19.84 32.3203C19.8381 32.307 19.8381 32.2935 19.84 32.2803H19.88L19.84 32.3203Z" fill="#B9BAE8"/>
<path d="M27.1667 39.6333L22.1067 44.6667L21.4933 42.4667L24.9467 39.02C25.1466 38.8205 25.4176 38.7085 25.7 38.7085C25.9825 38.7085 26.2534 38.8205 26.4533 39.02C26.6699 39.248 26.9088 39.4534 27.1667 39.6333Z" fill="#A7A9AC"/>
<path d="M27.1933 39.6601C30.5267 42.0201 34.3933 40.2334 35.7667 37.2667C35.8646 37.0665 36.0334 36.9097 36.2403 36.8268C36.4473 36.7439 36.6776 36.7407 36.8867 36.8179C37.0959 36.8951 37.2689 37.0471 37.3724 37.2446C37.4758 37.442 37.5023 37.6709 37.4467 37.8867C37.156 38.9379 36.5726 39.8847 35.7644 40.617C34.9562 41.3492 33.9565 41.8366 32.8819 42.0225C31.8073 42.2084 30.702 42.085 29.6948 41.6667C28.6877 41.2484 27.8201 40.5525 27.1933 39.6601Z" fill="#A7A9AC"/>
<path d="M23.48 30.5867C24.5531 30.4754 25.6029 30.2011 26.5933 29.7733C26.9194 29.6254 27.1804 29.3638 27.3276 29.0375C27.4749 28.7111 27.4982 28.3423 27.3933 28C27.1906 27.4013 26.8046 26.8815 26.2902 26.5142C25.7757 26.1469 25.1588 25.9507 24.5267 25.9533C24.1173 25.9444 23.7108 26.0228 23.3341 26.1833C22.9574 26.3439 22.6194 26.583 22.3424 26.8845C22.0654 27.1861 21.856 27.5433 21.7279 27.9322C21.5999 28.3211 21.5563 28.7329 21.6 29.14C21.6279 29.3586 21.6988 29.5696 21.8085 29.7608C21.9183 29.952 22.0647 30.1196 22.2394 30.254C22.4141 30.3885 22.6136 30.487 22.8265 30.5441C23.0394 30.6012 23.2615 30.6157 23.48 30.5867Z" fill="white"/>
<path d="M31.7533 33.9267C29.6943 34.1883 27.6221 34.333 25.5467 34.36C24.8194 34.392 24.1301 34.6938 23.6133 35.2067L23.3933 35.4334C23.1198 35.6999 22.9395 36.0476 22.8795 36.4247C22.8194 36.8019 22.8827 37.1884 23.06 37.5267C23.1513 37.7065 23.2839 37.862 23.447 37.9806C23.6101 38.0991 23.799 38.1772 23.9982 38.2084C24.1974 38.2397 24.4011 38.2232 24.5927 38.1603C24.7842 38.0974 24.9581 37.9899 25.1 37.8467L26 36.94C26.1893 36.7509 26.4178 36.6058 26.6694 36.5147C26.921 36.4237 27.1895 36.389 27.4559 36.4132C27.7224 36.4373 27.9803 36.5197 28.2114 36.6546C28.4425 36.7894 28.6412 36.9733 28.7933 37.1934C29.9667 38.8867 29.6667 38.5734 31.0733 39.1934C32.48 39.8134 34.5267 38.7734 34.8733 36.92C34.9319 36.502 34.8904 36.076 34.7523 35.6772C34.6141 35.2783 34.3832 34.9179 34.0786 34.6257C33.774 34.3335 33.4044 34.1177 33.0002 33.9962C32.5959 33.8747 32.1686 33.8509 31.7533 33.9267Z" fill="white"/>
<path d="M30.2667 29.4736C30.215 29.9757 30.1054 30.4701 29.94 30.947C29.1166 31.1775 28.3676 31.6187 27.7667 32.227C27.7036 32.29 27.6288 32.34 27.5464 32.3741C27.4641 32.4082 27.3758 32.4258 27.2867 32.4258C27.1975 32.4258 27.1093 32.4082 27.0269 32.3741C26.9445 32.34 26.8697 32.29 26.8067 32.227C26.7436 32.1639 26.6936 32.0891 26.6595 32.0067C26.6254 31.9244 26.6078 31.8361 26.6078 31.747C26.6078 31.6578 26.6254 31.5696 26.6595 31.4872C26.6936 31.4048 26.7436 31.33 26.8067 31.267C27.7484 30.328 28.9565 29.7018 30.2667 29.4736Z" fill="#A7A9AC"/>
<path d="M48.46 6.51367L39.7933 15.1803C39.1833 14.294 38.3368 13.5965 37.3502 13.1671C36.3636 12.7376 35.2763 12.5935 34.2119 12.751C33.1475 12.9085 32.1486 13.3614 31.3286 14.0582C30.5087 14.7549 29.9005 15.6677 29.5733 16.6927C29.2461 17.7178 29.2129 18.8141 29.4774 19.857C29.742 20.9 30.2938 21.8479 31.0701 22.593C31.8463 23.3381 32.816 23.8506 33.8689 24.0723C34.9219 24.294 36.0159 24.2159 37.0267 23.847C36.6588 24.858 36.5818 25.952 36.8044 27.0046C37.027 28.0571 37.5403 29.0262 38.286 29.8018C39.0316 30.5773 39.9798 31.1283 41.0229 31.392C42.0659 31.6557 43.162 31.6217 44.1867 31.2938C45.2114 30.9659 46.1236 30.3573 46.8198 29.537C47.5159 28.7167 47.9682 27.7176 48.1251 26.6533C48.282 25.5889 48.1373 24.5019 47.7074 23.5156C47.2776 22.5293 46.5798 21.6833 45.6933 21.0737L54.36 12.4403L48.46 6.51367Z" fill="#E6E7E8"/>
<path d="M42.52 31.5467C42.2842 31.5489 42.0559 31.4642 41.8786 31.3088C41.7012 31.1534 41.5873 30.9382 41.5584 30.7042C41.5296 30.4702 41.5879 30.2337 41.7222 30.0399C41.8565 29.8461 42.0574 29.7085 42.2867 29.6534C43.2247 29.3935 44.0814 28.8999 44.7767 28.2187C45.472 27.5375 45.9831 26.691 46.2622 25.7586C46.5413 24.8261 46.5792 23.838 46.3725 22.8868C46.1657 21.9357 45.721 21.0526 45.08 20.3201C44.8332 20.0427 44.7008 19.6821 44.7094 19.3109C44.7181 18.9397 44.8672 18.5856 45.1267 18.3201L52.6667 10.7334L54.36 12.4267L45.6933 21.0934C50.3667 24.2267 48.0933 31.4934 42.52 31.5467Z" fill="#A7A9AC"/>
<path d="M37.16 20.0002C37.3333 19.5135 37.5133 19.0335 37.6933 18.5468C37.8347 18.172 37.869 17.7652 37.7925 17.372C37.716 16.9788 37.5316 16.6146 37.26 16.3202C36.9357 16.0244 36.5546 15.7975 36.14 15.6535C35.6268 15.4399 35.0639 15.3748 34.5155 15.4656C33.9671 15.5565 33.4552 15.7995 33.0382 16.1672C32.6213 16.5348 32.316 17.0122 32.1572 17.5449C31.9983 18.0776 31.9924 18.6442 32.14 19.1802C32.7667 21.6802 36.2933 22.3468 37.16 20.0002Z" fill="white"/>
<path d="M47.4133 16L50.4467 12.9667C50.6291 12.782 50.7313 12.5329 50.7313 12.2733C50.7313 12.0138 50.6291 11.7647 50.4467 11.58L49.4733 10.6667C49.3828 10.5748 49.2748 10.5018 49.1558 10.4519C49.0368 10.4021 48.909 10.3765 48.78 10.3765C48.651 10.3765 48.5232 10.4021 48.4042 10.4519C48.2852 10.5018 48.1772 10.5748 48.0867 10.6667L45.48 13.2667C45.3549 13.3916 45.266 13.548 45.2225 13.7193C45.1791 13.8907 45.1828 14.0706 45.2333 14.24C45.4019 14.7703 45.6046 15.2892 45.84 15.7933C45.9127 15.9306 46.0172 16.0485 46.1448 16.1371C46.2724 16.2257 46.4193 16.2825 46.5733 16.3027C46.7273 16.323 46.884 16.306 47.0301 16.2534C47.1762 16.2007 47.3076 16.1138 47.4133 16Z" fill="white"/>
<path d="M43.2933 27.8732C43.9639 27.196 44.4881 26.3882 44.8333 25.4999C45.5667 23.6132 43.1267 21.9999 41.5 23.3132C40.9648 23.7211 40.4911 24.2038 40.0933 24.7466C39.7458 25.2141 39.5775 25.7909 39.6191 26.372C39.6607 26.9531 39.9094 27.4999 40.32 27.9132C40.7201 28.3012 41.2576 28.5149 41.8149 28.5074C42.3722 28.4999 42.9038 28.2719 43.2933 27.8732Z" fill="white"/>
<path d="M9.31336 57.487L18.1534 48.647L17.5334 46.4204H15.8134V43.5337H11.44L3.40002 51.5737L9.31336 57.487Z" fill="#E6E7E8"/>
<path d="M18.1533 48.6469L9.31335 57.4936L7.93335 56.1069L16.7733 47.2736L16.54 46.4136H17.5333L18.1533 48.6469Z" fill="#A7A9AC"/>
<path d="M10.3333 48.4934L7.79333 51.0334C7.72197 51.1041 7.66533 51.1882 7.62667 51.2809C7.58802 51.3736 7.56812 51.473 7.56812 51.5734C7.56812 51.6739 7.58802 51.7733 7.62667 51.866C7.66533 51.9587 7.72197 52.0428 7.79333 52.1134L8.76666 53.0934C8.83789 53.165 8.92256 53.2218 9.01581 53.2605C9.10905 53.2993 9.20902 53.3192 9.30999 53.3192C9.41096 53.3192 9.51094 53.2993 9.60418 53.2605C9.69742 53.2218 9.78209 53.165 9.85333 53.0934L11.8533 51.0934C11.962 50.9846 12.0344 50.8448 12.0607 50.6933C12.0869 50.5418 12.0657 50.3858 12 50.2468C11.8025 49.7876 11.6442 49.3126 11.5267 48.8268C11.4942 48.706 11.4309 48.5958 11.343 48.5069C11.255 48.4181 11.1454 48.3536 11.025 48.32C10.9046 48.2864 10.7775 48.2847 10.6562 48.3151C10.5349 48.3455 10.4236 48.4069 10.3333 48.4934Z" fill="white"/>
<path d="M51.84 60.8801C58.5558 60.8801 64 55.4358 64 48.7201C64 42.0043 58.5558 36.5601 51.84 36.5601C45.1242 36.5601 39.68 42.0043 39.68 48.7201C39.68 55.4358 45.1242 60.8801 51.84 60.8801Z" fill="#49D293"/>
<path d="M58.6467 46.5669H53.9933V41.9136H49.6867V46.5669H45.04V50.8736H49.6867V55.5202H53.9933V50.8736H58.6467V46.5669Z" fill="white"/>
<path d="M24.2133 59.5272C24.0365 59.5272 23.8669 59.4569 23.7419 59.3319C23.6169 59.2069 23.5467 59.0373 23.5467 58.8605V56.8605C23.5467 56.6837 23.6169 56.5141 23.7419 56.3891C23.8669 56.2641 24.0365 56.1938 24.2133 56.1938C24.3901 56.1938 24.5597 56.2641 24.6847 56.3891C24.8098 56.5141 24.88 56.6837 24.88 56.8605V58.8605C24.88 59.0373 24.8098 59.2069 24.6847 59.3319C24.5597 59.4569 24.3901 59.5272 24.2133 59.5272Z" fill="#E6E7E8"/>
<path d="M32.36 51.7201H30.3934C30.2165 51.7201 30.047 51.6498 29.9219 51.5248C29.7969 51.3998 29.7267 51.2302 29.7267 51.0534C29.7267 50.8766 29.7969 50.707 29.9219 50.582C30.047 50.457 30.2165 50.3867 30.3934 50.3867H32.36C32.5368 50.3867 32.7064 50.457 32.8314 50.582C32.9564 50.707 33.0267 50.8766 33.0267 51.0534C33.0267 51.2302 32.9564 51.3998 32.8314 51.5248C32.7064 51.6498 32.5368 51.7201 32.36 51.7201Z" fill="#E6E7E8"/>
<path d="M30.58 57.7402C30.2 57.7402 30.1867 57.6268 28.7 56.1402C28.6355 56.078 28.5842 56.0034 28.5491 55.9209C28.5141 55.8385 28.496 55.7498 28.496 55.6602C28.496 55.5705 28.5141 55.4819 28.5491 55.3994C28.5842 55.3169 28.6355 55.2423 28.7 55.1802C28.7623 55.1146 28.8373 55.0624 28.9204 55.0267C29.0034 54.9911 29.0929 54.9727 29.1834 54.9727C29.2738 54.9727 29.3633 54.9911 29.4464 55.0267C29.5294 55.0624 29.6044 55.1146 29.6667 55.1802L31.06 56.5735C31.1645 56.6652 31.2378 56.7872 31.2695 56.9226C31.3013 57.0579 31.2899 57.1998 31.237 57.3284C31.1841 57.4569 31.0923 57.5658 30.9745 57.6396C30.8567 57.7134 30.7188 57.7486 30.58 57.7402Z" fill="#E6E7E8"/>
<path d="M9.63334 30.7869C9.45653 30.7869 9.28696 30.7167 9.16194 30.5917C9.03691 30.4667 8.96667 30.2971 8.96667 30.1203V28.1203C8.96667 27.9435 9.03691 27.7739 9.16194 27.6489C9.28696 27.5239 9.45653 27.4536 9.63334 27.4536C9.81015 27.4536 9.97972 27.5239 10.1047 27.6489C10.2298 27.7739 10.3 27.9435 10.3 28.1203V30.1203C10.3 30.2971 10.2298 30.4667 10.1047 30.5917C9.97972 30.7167 9.81015 30.7869 9.63334 30.7869Z" fill="#E6E7E8"/>
<path d="M3.45334 36.6204H1.48667C1.30986 36.6204 1.14029 36.5502 1.01527 36.4252C0.890245 36.3002 0.820007 36.1306 0.820007 35.9538C0.820007 35.777 0.890245 35.6074 1.01527 35.4824C1.14029 35.3573 1.30986 35.2871 1.48667 35.2871H3.45334C3.63015 35.2871 3.79972 35.3573 3.92475 35.4824C4.04977 35.6074 4.12001 35.777 4.12001 35.9538C4.12001 36.1306 4.04977 36.3002 3.92475 36.4252C3.79972 36.5502 3.63015 36.6204 3.45334 36.6204Z" fill="#E6E7E8"/>
<path d="M4.66668 32.0004C4.29334 32.0004 4.28001 31.8871 2.79334 30.4071C2.66515 30.2789 2.59314 30.1051 2.59314 29.9238C2.59314 29.7425 2.66515 29.5686 2.79334 29.4404C2.92153 29.3122 3.09539 29.2402 3.27668 29.2402C3.45796 29.2402 3.63182 29.3122 3.76001 29.4404L5.15334 30.8338C5.25848 30.9258 5.33206 31.0485 5.36368 31.1846C5.39531 31.3206 5.38339 31.4632 5.32961 31.5921C5.27582 31.7211 5.18289 31.8299 5.06394 31.9031C4.94499 31.9764 4.80602 32.0104 4.66668 32.0004Z" fill="#E6E7E8"/>
</g>
<defs>
<clipPath id="clip0_376_567">
<rect width="64" height="64" fill="white"/>
</clipPath>
</defs>
</svg>
