<svg width="40" height="40" viewBox="0 0 40 40" fill="none" xmlns="http://www.w3.org/2000/svg">
<path d="M13.3322 0H7.49935C3.35804 0 0 3.35804 0 7.49935V13.3322C0 15.1737 1.49154 16.6652 3.33305 16.6652H13.3322C15.1737 16.6652 16.6652 15.1737 16.6652 13.3322V3.33305C16.6652 1.49154 15.1737 0 13.3322 0ZM23.3313 16.6652H33.3305C35.172 16.6652 36.6635 15.1737 36.6635 13.3322V7.49935C36.6635 3.35804 33.3055 0 29.1642 0H23.3313C21.4898 0 19.9983 1.49154 19.9983 3.33305V13.3322C19.9983 15.1737 21.4898 16.6652 23.3313 16.6652ZM13.3322 19.9983H3.33305C1.49154 19.9983 0 21.4898 0 23.3313V29.1642C0 33.3055 3.35804 36.6635 7.49935 36.6635H13.3322C15.1737 36.6635 16.6652 35.172 16.6652 33.3305V23.3313C16.6652 21.4898 15.1737 19.9983 13.3322 19.9983Z" fill="#1586FD" fill-opacity="0.3"/>
<path d="M33.7956 22.3664C30.639 19.2099 25.5215 19.2099 22.3657 22.3664C19.2092 25.523 19.2092 30.6405 22.3657 33.7963C25.5223 36.9529 30.6398 36.9529 33.7956 33.7963C36.9521 30.6398 36.9521 25.523 33.7956 22.3664ZM25.0353 32.1053C24.8999 32.2407 24.7229 32.3084 24.5452 32.3084C24.3675 32.3084 24.1913 32.2407 24.0559 32.1061C22.4603 30.5113 21.9587 28.1195 22.7773 26.013C22.9158 25.6568 23.3151 25.4807 23.6736 25.6184C24.0298 25.7569 24.2067 26.1584 24.0682 26.5146C23.4481 28.1095 23.8274 29.9197 25.0345 31.1268C25.3053 31.3968 25.3053 31.8353 25.0353 32.1053Z" fill="#1586FD"/>
<path d="M39.3148 36.0315L36.0421 32.7588C35.6505 33.4296 35.1743 34.0566 34.615 34.6159C34.0657 35.166 33.4333 35.6322 32.7548 36.033L36.0375 39.3158C36.9453 40.2236 38.4147 40.2313 39.3225 39.3235C40.2226 38.4241 40.2226 36.9393 39.3148 36.0315Z" fill="#1586FD"/>
</svg>
