<svg width="64" height="64" viewBox="0 0 64 64" fill="none" xmlns="http://www.w3.org/2000/svg">
<g clip-path="url(#clip0_376_472)">
<path d="M43.25 18.7471C40.1484 18.7471 37.625 16.2237 37.625 13.1221H33.875C33.875 16.1856 35.3523 18.9102 37.6315 20.6221C35.3523 22.3338 33.8749 25.0586 33.8749 28.1221V40.0122H37.6249V28.1221C37.6249 25.0204 40.1483 22.4971 43.2499 22.4971H46.9999V18.7471H43.25Z" fill="#CD0000"/>
<path d="M26.3685 20.6221C28.6477 18.9103 30.125 16.1856 30.125 13.1221H26.375C26.375 16.2237 23.8516 18.7471 20.75 18.7471H17V22.4971H20.75C23.8516 22.4971 26.375 25.0204 26.375 28.1221V40.0122H30.125V28.1221C30.125 25.0586 28.6477 22.3339 26.3685 20.6221Z" fill="#E63950"/>
<path d="M9.37525 39.3729L9.37425 39.3722C3.41675 34.9036 0 28.0693 0 20.6218C0 13.1743 3.41675 6.34005 9.37425 1.87155C13.5134 -1.2262 19.401 -0.384823 22.5002 3.74593C25.6015 7.88243 24.7605 13.7707 20.6259 16.8722C19.4336 17.7661 18.75 19.1326 18.75 20.6218C18.75 22.1111 19.4336 23.4777 20.6255 24.3713C24.7605 27.4731 25.6015 33.3613 22.5005 37.4973C19.4025 41.6229 13.516 42.4743 9.37525 39.3729Z" fill="#FF637B"/>
<path d="M41.5002 37.4986C38.3985 33.3614 39.2395 27.4732 43.3741 24.3717C44.5663 23.4778 45.25 22.1112 45.25 20.622C45.25 19.1327 44.5663 17.7661 43.3745 16.8725C39.2395 13.7707 38.3985 7.88247 41.4995 3.74647C44.599 -0.384527 50.4865 -1.2259 54.6242 1.87035C60.5832 6.34022 64 13.1745 64 20.622C64 28.0695 60.5832 34.9037 54.6257 39.3722L54.6247 39.373C50.4808 42.4768 44.5955 41.6202 41.5002 37.4986Z" fill="#E63950"/>
<path d="M32 37.7471C24.7625 37.7471 18.875 43.6346 18.875 50.8721C18.875 58.1096 24.7625 63.9971 32 63.9971C39.2375 63.9971 45.125 58.1096 45.125 50.8721C45.125 43.6346 39.2375 37.7471 32 37.7471Z" fill="#E6F5FA"/>
<path d="M45.125 50.8721C45.125 58.1096 39.2375 63.9971 32 63.9971V37.7471C39.2375 37.7471 45.125 43.6346 45.125 50.8721Z" fill="#C8E1E6"/>
<path d="M37.625 48.9971V52.7471H33.875V56.4971H30.125V52.7471H26.375V48.9971H30.125V45.2471H33.875V48.9971H37.625Z" fill="#FF637B"/>
<path d="M37.625 48.9971V52.7471H33.875V56.4971H32V45.2471H33.875V48.9971H37.625Z" fill="#E63950"/>
</g>
<defs>
<clipPath id="clip0_376_472">
<rect width="64" height="64" fill="white"/>
</clipPath>
</defs>
</svg>
