<svg width="44" height="44" viewBox="0 0 44 44" fill="none"
    xmlns="http://www.w3.org/2000/svg">
    <path d="M40.9262 29.221L41.0754 29.0719C44.9749 25.1726 44.9743 18.8269 41.0754 14.9277L40.9259 14.7783C38.4951 12.3474 35.1133 11.4335 31.9659 12.0334C32.5661 8.88634 31.6522 5.50452 29.2208 3.07339L29.0722 2.92452C25.1724 -0.975293 18.8276 -0.974389 14.9284 2.92452L14.7792 3.07368C12.3481 5.50481 11.4332 8.88634 12.0338 12.0334C8.88668 11.4335 5.50546 12.3477 3.07402 14.7789L2.92486 14.9277C-0.974653 18.8272 -0.975255 25.172 2.92486 29.0722L3.07372 29.2207C5.50485 31.6522 8.88638 32.5667 12.0335 31.9658C11.4332 35.1132 12.3475 38.4948 14.7783 40.9256L14.9278 41.0754C18.8273 44.9746 25.1724 44.9752 29.0719 41.0754L29.2211 40.9262C31.6522 38.4947 32.5661 35.1126 31.9659 31.9658C35.113 32.5664 38.4951 31.6522 40.9262 29.221ZM38.4876 26.7821C35.9326 29.337 31.7757 29.337 29.2211 26.7821L29.146 26.7076L26.7077 29.1463L26.7821 29.221C29.3371 31.7757 29.3371 35.9326 26.7821 38.4875L26.6332 38.6367C24.0782 41.1917 19.9211 41.1917 17.3664 38.637L17.2167 38.4872C14.6617 35.9328 14.6617 31.7757 17.2173 29.2204L17.2917 29.1457L14.853 26.707L14.7783 26.7817C12.2233 29.3367 8.06616 29.3367 5.51118 26.7821L5.36293 26.6335C2.80795 24.0785 2.80795 19.9217 5.36293 17.3664L5.51239 17.2175C8.06707 14.6622 12.2239 14.6622 14.7789 17.2175L14.853 17.2917L17.2917 14.853L17.2176 14.7789C14.6629 12.2239 14.6629 8.06702 17.2176 5.51204L17.3664 5.36319C19.9217 2.80822 24.0782 2.80822 26.6332 5.36319L26.7818 5.51145C29.3368 8.06643 29.3368 12.2233 26.7818 14.7783L26.7071 14.8527L29.146 17.2913L29.2204 17.2169C31.7754 14.662 35.9323 14.662 38.487 17.2169L38.6367 17.3664C41.1917 19.9214 41.1917 24.0782 38.6367 26.6329L38.4876 26.7821Z" fill="#1586FD"/>
    <path d="M19.1955 27.1376L22 24.3328L24.8042 27.1373L27.2428 24.6987L24.4384 21.8948L27.2428 19.09L24.8042 16.6513L21.9994 19.4561L19.1949 16.6516L16.7568 19.09L19.561 21.8942L16.7568 24.6987L19.1955 27.1376Z" fill="#1586FD"/>
</svg>
