<svg width="27" height="36" viewBox="0 0 27 36" fill="none" xmlns="http://www.w3.org/2000/svg">
<path d="M19.0326 13.5456V10.6289H7.36589V13.5456C5.43273 13.5479 3.57941 14.3169 2.21246 15.6838C0.845506 17.0508 0.0765344 18.9041 0.0742188 20.8372V28.1289C0.0765344 30.0621 0.845506 31.9154 2.21246 33.2824C3.57941 34.6493 5.43273 35.4183 7.36589 35.4206H19.0326C20.9657 35.4183 22.8191 34.6493 24.186 33.2824C25.553 31.9154 26.3219 30.0621 26.3242 28.1289V20.8372C26.3219 18.9041 25.553 17.0508 24.186 15.6838C22.8191 14.3169 20.9657 13.5479 19.0326 13.5456ZM17.5742 25.2123H14.6576V28.1289C14.6576 28.5157 14.5039 28.8866 14.2304 29.1601C13.9569 29.4336 13.586 29.5873 13.1992 29.5873C12.8125 29.5873 12.4415 29.4336 12.168 29.1601C11.8945 28.8866 11.7409 28.5157 11.7409 28.1289V25.2123H8.82423C8.43745 25.2123 8.06652 25.0586 7.79303 24.7851C7.51954 24.5116 7.36589 24.1407 7.36589 23.7539C7.36589 23.3671 7.51954 22.9962 7.79303 22.7227C8.06652 22.4492 8.43745 22.2956 8.82423 22.2956H11.7409V19.3789C11.7409 18.9921 11.8945 18.6212 12.168 18.3477C12.4415 18.0742 12.8125 17.9206 13.1992 17.9206C13.586 17.9206 13.9569 18.0742 14.2304 18.3477C14.5039 18.6212 14.6576 18.9921 14.6576 19.3789V22.2956H17.5742C17.961 22.2956 18.3319 22.4492 18.6054 22.7227C18.8789 22.9962 19.0326 23.3671 19.0326 23.7539C19.0326 24.1407 18.8789 24.5116 18.6054 24.7851C18.3319 25.0586 17.961 25.2123 17.5742 25.2123Z" fill="#312E81"/>
<path opacity="0.4" d="M8.09506 7.7116H18.3034C19.2703 7.7116 20.1977 7.32748 20.8814 6.64375C21.5651 5.96003 21.9492 5.03269 21.9492 4.06576C21.9492 3.09882 21.5651 2.17149 20.8814 1.48776C20.1977 0.804036 19.2703 0.419922 18.3034 0.419922H8.09506C7.12812 0.419922 6.20079 0.804036 5.51706 1.48776C4.83333 2.17149 4.44922 3.09882 4.44922 4.06576C4.44922 5.03269 4.83333 5.96003 5.51706 6.64375C6.20079 7.32748 7.12812 7.7116 8.09506 7.7116Z" fill="#312E81"/>
</svg>
