<svg width="56" height="51" viewBox="0 0 56 51" fill="none" xmlns="http://www.w3.org/2000/svg">
<path d="M55.6734 19.8863C54.599 12.6659 50.8756 7.32595 44.4682 3.90468C41.3133 2.21977 37.9179 1.29351 34.422 0.687772C28.7945 -0.288473 23.1861 -0.278182 17.6112 1.05975C13.0815 2.14626 8.92367 4.01348 5.45392 7.22009C3.1082 9.38871 1.27419 11.919 0.402374 15.0595C0.223055 15.7078 0.131209 16.3797 0 17.0414V19.1365C0.0379048 19.3144 0.0816412 19.4893 0.112257 19.6687C0.648756 22.8827 2.15183 25.4144 5.15506 26.8641C6.83162 27.6727 8.62335 27.9285 10.4661 27.9227C10.8626 27.9212 11.0697 27.7815 11.2359 27.4022C12.1572 25.2939 13.4708 23.4899 15.4127 22.2196C17.8955 20.5949 20.6144 20.3524 23.4456 20.914C23.8523 20.9949 24.0885 20.9228 24.3786 20.6155C26.3074 18.5689 28.6415 17.5971 31.4639 18.0367C33.1521 18.2984 34.6508 19.0335 36.0562 19.9804C36.5738 20.3288 36.7079 20.6523 36.4878 21.0022C36.2676 21.3536 35.909 21.3448 35.39 21.0419C34.6829 20.6302 33.9817 20.1892 33.2323 19.8686C30.0352 18.5072 27.0422 19.2644 24.8583 21.9637C24.5711 22.3195 24.2649 22.3872 23.8523 22.2901C22.2618 21.9182 20.6567 21.7212 19.0341 22.0593C15.9958 22.6945 14.0262 24.644 12.6194 27.3257C11.9852 28.5328 11.7534 29.7722 12.0275 31.0999C12.5946 33.8463 13.9621 35.9399 16.7306 36.878C18.1404 37.3543 19.5866 37.6219 21.0707 37.6366C23.1278 37.6542 25.0493 37.2308 26.8337 36.0884C28.9724 34.7167 31.3269 33.8639 33.9088 34.0565C35.0678 34.1433 36.0621 33.933 36.9936 33.2597C38.4821 32.1849 40.1543 32.0408 41.9023 32.3187C44.0571 32.6613 46.0821 33.4243 48.0939 34.2418C48.3155 34.3315 48.6027 34.4123 48.8156 34.3491C50.0154 33.9904 51.24 33.6743 52.3845 33.1759C54.1179 32.4216 55.185 31.0234 55.5408 29.1518C56.1239 26.076 56.1327 22.9797 55.6734 19.8863ZM7.85942 23.1267C7.63636 23.4855 7.31855 23.5075 6.95845 23.3134C5.52536 22.5474 4.48006 20.7934 4.48881 18.9806C4.51505 17.9867 4.91596 16.934 5.49328 15.9387C5.69447 15.5932 5.98459 15.4197 6.35926 15.6211C6.76309 15.8372 6.73394 16.1768 6.57503 16.5679C6.29366 17.259 5.94377 17.9485 5.82276 18.6719C5.59533 20.0157 6.14933 21.1095 7.19463 21.9535C7.33604 22.0681 7.49495 22.1608 7.64219 22.2696C7.94543 22.4945 8.07081 22.7856 7.85942 23.1267ZM20.5007 12.2233C20.3811 12.6894 20.0283 12.7144 19.5895 12.6512C18.8227 12.5439 18.0267 12.3968 17.2715 12.4909C15.8807 12.6659 15.0263 13.5951 14.5336 14.8874C14.4578 15.0889 14.3849 15.355 14.2274 15.4447C14.0408 15.5491 13.6705 15.5976 13.551 15.4844C13.3789 15.3226 13.2448 14.9668 13.2958 14.7419C13.7886 12.5997 15.7392 11.106 17.9538 11.0751C18.5967 11.1912 19.2425 11.2956 19.8825 11.4279C20.298 11.5117 20.6231 11.7396 20.5007 12.2233ZM23.4062 5.80277C23.2604 6.16445 22.9762 6.25119 22.6 6.14975C21.3535 5.81894 20.1114 5.45432 18.8489 5.20438C18.276 5.09117 17.6462 5.14998 17.0615 5.24554C15.9711 5.42638 15.4754 6.04242 15.4127 7.16569C15.3864 7.62882 15.1809 7.88758 14.7071 7.89052C12.0377 7.90228 10.3713 9.34901 9.3829 11.7205C9.14381 12.2895 9.00823 12.9055 8.85515 13.5083C8.71957 14.0479 8.46006 14.3023 8.05332 14.1861C7.57659 14.0494 7.54014 13.698 7.63199 13.2672C7.95272 11.7749 8.52129 10.3929 9.43247 9.17258C10.6031 7.60235 12.1616 6.72462 14.1502 6.6364C14.6079 4.80888 15.5337 4.02377 17.356 3.90027C19.3475 3.765 21.2121 4.32811 23.0505 5.00148C23.4091 5.13381 23.5549 5.43374 23.4062 5.80277ZM29.0468 3.54153C28.7319 6.27472 27.8396 8.74327 25.7782 10.6664C25.698 10.7399 25.6251 10.8237 25.5376 10.8884C24.8903 11.3677 24.7781 12.0102 24.9676 12.7497C25.0682 13.1393 25.1819 13.5275 25.2577 13.923C25.3233 14.2699 25.1921 14.5463 24.832 14.6434C24.4501 14.7478 24.1716 14.5757 24.0725 14.2097C23.8669 13.4525 23.6993 12.685 23.485 11.7911C23.6614 11.4294 23.8363 11.0001 24.0725 10.6105C24.211 10.3826 24.4384 10.2018 24.644 10.0239C26.5859 8.33748 27.4883 6.13505 27.7813 3.62827C27.8236 3.27247 27.8557 2.91667 28.2814 2.80934C28.7304 2.69613 29.1051 3.03135 29.0468 3.54153ZM32.2847 9.99004C31.6651 11.2574 31.5397 12.6218 31.566 14.0112C31.5703 14.1935 31.5878 14.3773 31.5893 14.561C31.5908 14.9462 31.3998 15.2109 31.0222 15.2447C30.6402 15.2785 30.3938 15.0492 30.3647 14.6625C30.2087 12.5409 30.3632 10.4561 31.5368 8.62124C31.9348 8.00079 32.6288 7.57736 33.1667 7.04366C33.3081 6.90399 33.4641 6.69227 33.4656 6.51143C33.4802 5.28671 34.2339 4.20755 35.3798 3.83999C35.753 3.71943 36.0868 3.77235 36.2458 4.17226C36.4047 4.57364 36.202 4.84417 35.8405 5.00295C35.1917 5.28671 34.7427 5.71014 34.7631 6.57171C36.1 6.45556 37.3421 6.68492 38.5609 7.09806C38.9793 7.2392 39.319 7.42298 39.1921 7.94198C39.0901 8.35953 38.7329 8.47127 38.1556 8.28308C37.052 7.9214 35.9309 7.71262 34.7748 7.95227C33.6012 8.19486 32.8008 8.92999 32.2847 9.99004ZM34.6654 15.2021C34.2937 15.3932 33.9846 15.4873 33.7032 15.1241C33.4758 14.8316 33.5195 14.5125 33.8024 14.2949C35.0197 13.3554 36.3463 12.6718 37.5024 12.6144C39.1717 12.5953 40.0916 13.1893 40.6835 14.2552C41.0072 14.8404 41.2069 15.4961 41.4387 16.1298C41.5816 16.5179 41.5174 16.8884 41.0815 17.0252C40.6238 17.1707 40.3861 16.9002 40.2418 16.4738C40.0844 16.0092 39.9284 15.5314 39.6834 15.1109C39.1455 14.1891 38.2285 13.7333 37.2225 14.0391C36.3347 14.3096 35.4993 14.7742 34.6654 15.2021ZM38.8379 30.4574C37.9981 30.6838 37.1453 30.8676 36.2924 31.0367C36.011 31.0911 35.7107 31.0455 35.4206 31.0455C35.4133 31.0896 35.406 31.1337 35.4002 31.1793C34.4569 31.0028 33.4889 30.9058 32.5763 30.625C31.8021 30.3853 31.133 30.4721 30.4142 30.7602C29.49 31.1322 28.5598 31.5512 27.5918 31.7291C27.0247 31.8335 26.3628 31.5586 25.7753 31.3601C25.4064 31.2351 25.2927 30.8514 25.5085 30.4883C25.7053 30.1574 26.0202 30.0795 26.3584 30.2795C26.9868 30.6529 27.6239 30.5515 28.2522 30.3133C28.9666 30.0428 29.6649 29.7281 30.3763 29.4517C31.1636 29.1459 31.9436 29.1033 32.7702 29.39C34.5663 30.0119 36.3813 29.981 38.1833 29.3767C38.2707 29.3473 38.3538 29.3076 38.4413 29.2856C38.797 29.1959 39.1119 29.2474 39.2504 29.634C39.3933 30.0325 39.2213 30.3545 38.8379 30.4574ZM44.1795 21.3698C43.6941 21.9152 43.1342 22.3931 42.6429 22.9356C42.019 23.6251 41.3483 24.2926 40.8454 25.0674C39.7549 26.7465 38.2401 27.5095 35.578 27.5051C34.7718 27.3257 33.26 27.0773 31.8036 26.6436C29.8821 26.0716 28.0467 25.9952 26.1572 26.8053C25.3044 27.1714 24.3334 27.2963 23.4019 27.4184C22.8202 27.4934 22.1787 27.4698 21.6203 27.3008C19.7338 26.7318 18.0908 28.8563 18.3984 30.478C18.4217 30.6044 18.5107 30.7617 18.464 30.8485C18.3416 31.0822 18.1914 31.4189 17.996 31.4645C17.7963 31.5101 17.359 31.2939 17.324 31.1263C17.203 30.5632 17.1053 29.9545 17.1942 29.3944C17.5091 27.4184 19.5152 25.413 21.9469 26.0981C23.1424 26.4333 24.383 26.2216 25.4764 25.7188C27.8732 24.6161 30.2189 24.7469 32.639 25.5997C33.9613 26.0657 35.355 26.301 36.7764 26.2025C37.9719 26.1201 38.8947 25.5791 39.6412 24.6161C40.4459 23.5795 41.2915 22.5621 42.2201 21.6418C43.2567 20.6155 44.1212 19.5658 44.0585 17.9955C44.0439 17.6206 44.318 17.4163 44.6621 17.4221C45.0382 17.4266 45.254 17.6647 45.27 18.0602C45.3196 19.3026 45.0134 20.4332 44.1795 21.3698ZM42.968 10.7472C42.57 10.6855 42.3324 10.4546 42.3849 10.0341C42.4344 9.63424 42.7129 9.49309 43.143 9.51221C44.3166 9.67541 45.3721 10.2179 46.3037 11.0163C47.1755 11.7646 47.8126 12.6953 48.3009 13.7333C48.4817 14.12 48.4642 14.4772 48.0633 14.6728C47.6682 14.8669 47.3941 14.6625 47.1769 14.2905C46.8212 13.6774 46.4742 13.0437 46.0252 12.5012C45.2336 11.547 44.2101 10.9398 42.968 10.7472ZM50.8114 27.3669C50.1306 27.883 49.4439 28.3976 48.7223 28.8504C48.3695 29.0709 48.2178 29.29 48.3257 29.6914C48.5138 30.3897 48.8331 30.9455 49.6407 31.0411C50.0285 31.0866 50.2705 31.3675 50.1597 31.7277C50.0825 31.9791 49.7836 32.1614 49.6743 32.2775C48.8316 32.2378 48.3126 31.96 47.8898 31.4954C47.381 30.9337 47.0953 30.2604 47.0515 29.5061C47.0122 28.843 47.2323 28.3196 47.8563 27.9462C48.5867 27.5081 49.2704 26.9832 49.9469 26.4598C50.288 26.1951 50.6146 26.0187 50.9528 26.373C51.2925 26.7288 51.1598 27.1037 50.8114 27.3669ZM51.7342 24.1794C51.5156 24.2191 51.1657 24.0618 51.0243 23.8751C50.7866 23.5634 50.6919 23.1458 50.4965 22.7974C50.2866 22.4225 50.0256 22.2107 49.5737 22.5474C49.4308 22.6533 49.0401 22.6474 48.9424 22.5357C48.7791 22.3475 48.7004 22.0329 48.696 21.7697C48.6829 21.0625 48.8579 20.3259 48.7164 19.6525C48.5677 18.9409 48.1756 18.269 47.8228 17.6177C47.6172 17.2384 47.467 16.9223 47.8446 16.6003C48.1566 16.3342 48.5342 16.4444 48.8491 16.8958C49.6889 18.0999 50.1452 19.429 50.0854 20.9522C51.068 21.233 52.1643 22.6107 52.1483 23.5884C52.1439 23.8001 51.9077 24.1471 51.7342 24.1794Z" fill="#0E82FD"/>
<path d="M48.3649 36.3935C48.5179 38.9752 47.0863 40.5322 45.003 41.6423C43.0174 42.6994 40.8451 43.0449 38.6408 43.2346C38.5081 43.2448 38.3551 43.1846 38.2341 43.1169C36.5211 42.1554 34.9291 41.0351 33.6461 39.5207C32.8982 38.6386 32.3457 37.6579 32.2786 36.467C32.2189 35.4099 32.3749 35.2511 33.4114 35.2658C33.6651 35.2687 33.9187 35.2981 34.1724 35.3231C35.139 35.4216 36.1172 35.3702 36.8957 34.7644C38.9878 33.1354 41.2577 33.2383 43.5903 33.972C45.2173 34.4822 46.8122 35.0923 48.4392 35.6642C48.4042 35.9936 48.3532 36.195 48.3649 36.3935Z" fill="#0E82FD"/>
<path d="M33.6639 44.549C33.7077 45.1945 33.8301 45.8737 34.094 46.4559C34.5897 47.5513 35.2136 48.5878 35.8085 49.6934C35.3244 50.4227 34.594 50.8975 33.6581 50.999C33.4642 51.0196 33.1595 50.8828 33.0545 50.7211C31.3124 48.0144 29.5848 45.2974 27.882 42.5656C27.6691 42.2246 27.5467 41.7923 27.4942 41.3865C27.3396 40.2059 27.2522 39.015 27.1122 37.8314C27.0729 37.4933 27.1632 37.2992 27.4607 37.1272C28.5818 36.4759 29.7379 35.9157 31.0733 35.5996C30.8677 37.4286 31.5223 38.9444 32.6696 40.2162C33.5225 41.1586 34.5255 41.9628 35.4688 42.8215C35.6262 42.9656 35.8143 43.0758 35.9878 43.2023C35.979 43.242 35.9688 43.2817 35.9601 43.3214C35.581 43.3214 35.2005 43.3008 34.8229 43.3258C34.0386 43.3758 33.6114 43.7683 33.6639 44.549Z" fill="#0E82FD"/>
</svg>
