<svg width="63" height="51" viewBox="0 0 63 51" fill="none" xmlns="http://www.w3.org/2000/svg">
<path d="M7.65791 17.1655C6.21886 19.7441 5.70913 22.5444 5.69766 25.4546C5.68455 28.4911 6.20575 31.4094 7.73822 34.0867C8.56919 35.5394 9.66077 36.743 11.2621 37.4257C11.5784 37.56 11.9046 37.7848 12.1062 38.055C18.5294 46.6693 30.6416 49.1557 40.0053 43.7639C43.734 41.6172 46.5596 38.626 48.4658 34.8066C49.1739 33.3895 50.0687 32.1325 51.3144 31.1312C53.2861 29.5442 55.5643 28.8583 58.0884 28.868C59.7257 28.8728 61.3631 28.8437 63.0005 28.8308V31.136C60.4797 31.5275 58.1343 32.3639 56.0265 33.8085C54.1843 35.0719 52.6748 36.6427 51.4963 38.5274C47.0153 45.6906 40.5478 49.9678 32.079 50.8365C22.5401 51.8152 14.722 48.3727 8.71998 40.9782C8.31351 40.4751 7.87425 40.0901 7.28421 39.8021C4.28484 38.3429 2.24428 35.9972 1.21826 32.8896C-0.424019 27.92 -0.419102 22.9019 1.31332 17.9517C2.41146 14.8149 4.54872 12.5194 7.6071 11.0764C7.93981 10.9195 8.25614 10.6493 8.48232 10.3565C12.9044 4.62172 18.731 1.23423 25.9525 0.234483C35.9897 -1.15675 46.1564 3.73683 51.4406 12.4159C53.9827 16.5896 57.736 19.0598 62.5727 19.9447C62.712 19.9706 62.8579 19.9641 63.0005 19.9738V22.279C61.4041 22.2661 59.8077 22.2807 58.213 22.2273C57.2754 22.1965 56.3199 22.1512 55.4119 21.9442C52.1191 21.1887 49.8885 19.165 48.4002 16.1981C44.4355 8.29716 35.8045 3.6058 27.0145 4.59907C20.7945 5.30278 15.8021 8.1823 12.0488 13.1422C11.921 13.3121 11.7587 13.5078 11.5686 13.5741C9.73944 14.2212 8.55936 15.5526 7.65791 17.1655Z" fill="#0E82FD"/>
<path d="M63.0007 24.4629V26.6468C61.383 26.65 59.7653 26.6435 58.1493 26.6581C52.9356 26.7018 49.0643 28.952 46.6107 33.5204C46.5435 33.645 46.4763 33.7696 46.4042 33.8909C46.3862 33.92 46.3468 33.9378 46.2223 34.0316C44.5718 28.3729 44.5488 22.7901 46.2993 17.0586C46.6484 17.6717 46.9041 18.1732 47.2106 18.644C49.5691 22.2676 52.9471 24.2024 57.2905 24.4257C59.1884 24.5227 61.0962 24.4548 63.0007 24.4629Z" fill="#0E82FD"/>
<path d="M29.3021 12.201C29.2807 12.8836 29.7102 13.2784 30.5166 13.3544C31.4918 13.4482 32.4784 13.5016 33.4373 13.6893C34.6042 13.9157 35.4434 14.5062 35.9171 15.2681C35.5581 15.3167 35.2139 15.3458 34.8796 15.4121C33.4291 15.7065 32.2064 16.3941 31.2213 17.4909C31.0181 17.7174 30.8083 17.9422 30.5821 18.1461C29.5118 19.1151 27.9843 19.1264 26.8993 18.1816C26.837 18.1266 26.7813 18.0668 26.7206 18.0134C26.1584 17.5103 25.4766 17.4941 25.0308 17.9697C24.5883 18.4421 24.6555 19.0989 25.2013 19.6327C27.0206 21.4155 29.7003 21.5983 31.7458 20.0533C32.1818 19.7233 32.5604 19.3173 32.9456 18.9274C34.0322 17.8306 35.3352 17.3534 36.9759 17.5151C37.0398 18.2108 37.1758 18.8918 37.1545 19.568C37.0595 22.5705 38.6181 24.4567 41.2586 25.6474C41.3881 25.7056 41.5175 25.7606 41.611 25.8027C40.4915 26.6439 39.3688 27.4883 38.1838 28.3797C36.2481 27.388 34.1994 27.7278 32.1638 28.4347C31.7737 28.5706 31.4868 28.5528 31.1492 28.3279C30.4018 27.8313 29.6364 27.3622 28.8677 26.8995C28.2138 26.5048 27.5614 26.6374 27.214 27.2069C26.8845 27.7456 27.0566 28.3797 27.6663 28.768C28.3531 29.2064 29.0529 29.6221 29.8101 30.0864C29.4004 30.5151 29.0103 30.913 28.6317 31.3191C28.081 31.9063 28.0466 32.5922 28.535 33.0322C29.03 33.4787 29.7069 33.4027 30.2674 32.8203C30.8329 32.2347 31.377 31.6297 31.9441 31.0457C32.8456 30.1171 35.7991 29.7159 36.8185 30.2999C36.5104 31.4792 36.2039 32.6246 35.9105 33.7732C35.6352 34.8489 35.1271 35.7953 34.4223 36.664C32.8357 38.6134 30.5149 38.581 28.9759 37.9986C28.7858 37.9258 28.5956 37.8369 28.399 37.7996C27.8188 37.6896 27.2976 37.9808 27.1189 38.492C26.937 39.0194 27.1255 39.6163 27.6565 39.8347C30.0068 40.8021 32.3654 40.9914 34.5665 39.4902C36.6956 38.0374 37.8462 35.9555 38.2985 33.448C38.7247 31.0813 40.0556 29.3099 42.1633 28.1063C42.3043 28.0254 42.4518 27.9542 42.6009 27.8879C42.6517 27.8653 42.7173 27.8766 42.773 27.8717C42.8976 28.941 42.9074 30.0249 43.168 31.0473C43.5925 32.7038 44.1908 34.3167 44.6874 35.9555C44.7579 36.1835 44.7742 36.5297 44.648 36.6996C37.3102 46.4738 22.7559 47.0999 14.7067 37.654C14.6805 37.6233 14.6674 37.5829 14.6428 37.5392C18.3306 35.6497 19.5188 32.2525 20.0974 28.5479C20.6678 24.9016 20.3252 21.3281 18.7731 17.9309C17.911 16.0414 16.6866 14.4544 14.5625 13.597C15.0853 13.0454 15.559 12.5035 16.0769 12.0068C24.2933 4.11563 37.8937 5.24156 44.6874 14.3606C44.9234 14.6761 44.9709 14.8928 44.7677 15.2633C43.6532 17.2887 43.25 19.5146 42.9664 21.7681C42.8812 22.4443 42.8287 23.1238 42.755 23.855C40.4653 23.1367 39.3409 21.7406 39.3557 19.5195C39.3639 18.3272 39.1344 17.0962 38.7968 15.946C38.0068 13.2492 35.9859 11.8726 33.2865 11.3873C32.4047 11.2303 31.4983 11.1818 30.6001 11.1397C29.8134 11.1042 29.3234 11.5409 29.3021 12.201Z" fill="#0E82FD"/>
<path d="M16.5148 32.5509C16.1395 33.3533 15.5281 34.0942 14.8807 34.7171C13.7482 35.8074 12.4075 35.7961 11.1716 34.819C10.2882 34.1217 9.71129 33.2045 9.23926 32.1692C10.6652 31.6838 11.3896 30.5951 11.8158 29.3139C12.6697 26.7401 12.6713 24.1485 11.7355 21.5893C11.2995 20.3954 10.5931 19.3989 9.24254 18.9444C9.78505 17.7893 10.4357 16.7604 11.5093 16.0551C12.6205 15.3239 13.8088 15.4388 14.8856 16.3625C15.8674 17.2069 16.5295 18.2779 16.9524 19.4701C18.5177 23.8816 18.5177 28.2672 16.5148 32.5509Z" fill="#0E82FD"/>
<path d="M9.77488 28.282C9.64376 28.6816 9.47002 29.0795 9.24548 29.4338C9.11108 29.6457 8.83901 29.7735 8.62921 29.9402C8.52104 29.7169 8.34895 29.5034 8.31617 29.2704C8.13751 28.0329 7.99328 26.7921 7.83594 25.5303C8.00148 24.2507 8.15554 22.9694 8.34239 21.6931C8.37025 21.507 8.54726 21.3404 8.65544 21.1641C8.82753 21.2886 9.08977 21.3776 9.15533 21.5426C9.48641 22.3806 9.87322 23.2169 10.042 24.0921C10.3141 25.4931 10.224 26.9118 9.77488 28.282Z" fill="#0E82FD"/>
</svg>
