<svg width="37" height="51" viewBox="0 0 37 51" fill="none" xmlns="http://www.w3.org/2000/svg">
<path d="M36.8778 22.7723C36.2286 18.6679 34.1235 15.5756 30.6137 13.4158C23.9146 9.29144 17.2313 5.14051 10.544 0.997552C10.0315 0.680089 9.53745 0.333403 9.03548 0H8.83837C8.75953 0.156739 8.69645 0.325433 8.5979 0.468889C7.66623 1.83571 6.7293 3.19721 5.79501 4.5627C5.69777 4.70483 5.61104 4.85493 5.5138 5.01167C5.70039 5.1352 5.83706 5.22685 5.97372 5.31585C10.8975 8.49579 15.8305 11.6598 20.7385 14.8637C22.1629 15.7935 23.6018 16.0193 25.1721 15.3498C25.7056 15.1227 26.2576 15.1174 26.8081 15.3139C28.5164 15.9223 28.9593 18.1047 27.6032 19.352C26.8922 20.0055 26.3456 20.74 26.0841 21.6845C25.7346 22.9437 24.8502 23.6384 23.6649 23.6105C22.5256 23.5826 21.657 22.7976 21.3982 21.5078C21.0131 19.595 19.9974 18.1565 18.3679 17.1111C13.6018 14.0521 8.85151 10.9678 4.09461 7.89407C3.96452 7.80906 3.82917 7.73069 3.68463 7.6417C2.43627 9.46279 1.22339 11.2321 0 13.0173C0.131406 13.1621 0.237845 13.2856 0.350854 13.4025C2.27595 15.3963 4.45204 17.0779 6.73719 18.6214C10.4205 21.1067 14.343 23.135 18.4258 24.8578C19.0775 25.1314 19.1209 25.3678 18.8134 26.0041C18.247 27.1796 17.657 28.3499 17.201 29.5706C16.4836 31.4873 16.1827 33.4744 16.5269 35.532C16.6334 36.1669 16.6991 36.8178 16.7043 37.4607C16.7227 40.1358 16.2142 42.7393 15.5887 45.3228C15.3246 46.4121 15.0171 47.4906 14.7122 48.6396C16.9001 48.9385 19.0512 49.2334 21.2273 49.5309C21.2733 49.3051 21.3141 49.1311 21.3443 48.9531C22.0302 44.9164 22.682 40.8731 23.4113 36.8443C23.7779 34.82 23.5322 33.0029 22.2063 31.3704C21.5388 30.5469 21.6242 29.4085 22.3022 28.6195C22.9658 27.8464 24.0723 27.6206 24.9908 28.14C25.8068 28.6009 26.6439 28.7244 27.5532 28.5624C28.4533 28.4017 29.3114 28.828 29.77 29.6157C30.3167 30.5562 30.1248 31.6799 29.2589 32.4477C27.5926 33.9234 26.5427 35.7591 26.1524 37.9588C25.5861 41.1573 25.0539 44.3638 24.5072 47.5663C24.3758 48.3434 24.247 49.1205 24.1117 49.9267C26.77 50.2894 29.3679 50.6427 31.9882 51C32.0302 50.8247 32.0696 50.6825 32.0972 50.5391C33.5664 43.1431 35.0276 35.7445 36.5059 28.3499C36.8738 26.5049 37.1774 24.6625 36.8778 22.7723ZM32.7779 24.9428C32.6728 25.1314 32.3377 25.1885 32.2378 25.2377C31.343 25.1287 30.6242 25.061 29.912 24.9494C29.2536 24.8458 29.0775 24.3437 29.5151 23.8443C29.9501 23.3475 30.3968 22.86 30.8581 22.3885C31.2339 22.0019 31.636 22.0617 31.9014 22.5386C32.1997 23.0725 32.498 23.6092 32.7398 24.1697C32.8384 24.3995 32.8857 24.7502 32.7779 24.9428Z" fill="#0E82FD"/>
</svg>
