<svg width="40" height="40" viewBox="0 0 40 40" fill="none" xmlns="http://www.w3.org/2000/svg">
<path d="M32.6246 23.1691C33.0483 24.0473 33.2948 25.122 33.3493 26.3646C34.7792 26.6588 35.8493 27.8073 35.8493 29.1788C35.8493 30.7717 34.406 32.0677 32.6321 32.0677C30.8581 32.0677 29.4148 30.7717 29.4148 29.1788C29.4148 27.8228 30.4617 26.6864 31.8664 26.3757C31.8045 25.1415 31.4758 23.2637 30.1305 22.3366C29.444 22.1771 28.7382 22.0615 28.0141 22.002C27.9607 24.1642 20.0017 29.5002 20.0017 29.5002C20.0017 29.5002 12.0403 24.1651 11.9864 22.0028C11.1821 22.0686 10.3996 22.2006 9.64375 22.3908C8.66225 23.0886 8.15443 24.3886 8.12819 26.2784C8.41675 26.4273 8.64988 26.6597 8.79292 26.9411C9.85015 27.3895 10.7841 28.3326 11.4994 29.6753C11.6191 29.9011 11.635 30.1562 11.5469 30.3891C11.9755 31.3797 12.2205 32.4624 12.2205 33.3717C12.2205 34.646 12.2205 35.8508 10.6738 36.1602C10.5065 36.2851 10.2966 36.354 10.0763 36.354H9.04288C8.52466 36.354 8.10295 35.9744 8.10295 35.5104L8.10394 35.4775C8.12374 35.0286 8.54198 34.6664 9.04288 34.6664H10.0763C10.1823 34.6664 10.2857 34.6824 10.3857 34.7135C10.4481 34.698 10.4679 34.6851 10.4684 34.6846C10.5832 34.5015 10.5832 33.7388 10.5832 33.3726C10.5832 32.634 10.3773 31.742 10.0165 30.9131C9.82936 30.8175 9.67791 30.6731 9.58486 30.4984C8.95824 29.3202 8.10592 28.5593 7.41397 28.5593C6.70618 28.5593 5.8113 29.3824 5.18716 30.6055C5.08519 30.8051 4.90652 30.9673 4.68675 31.0646C4.36058 31.8575 4.1814 32.674 4.1814 33.3722C4.1814 33.6797 4.1814 34.4957 4.31207 34.6877C4.31356 34.6877 4.34276 34.7037 4.42492 34.722C4.53183 34.6851 4.64666 34.666 4.76149 34.666H5.79694C6.27953 34.666 6.68292 34.9957 6.73142 35.4246L6.73637 35.4766C6.73637 35.9748 6.31467 36.3544 5.79694 36.3544H4.76149C4.55608 36.3544 4.35761 36.2926 4.19427 36.1806C3.6028 36.0806 3.18604 35.8464 2.92223 35.4651C2.60249 35.0042 2.54408 34.3988 2.54408 33.3722C2.54408 32.4717 2.77572 31.4344 3.19644 30.4437C3.13457 30.2317 3.15536 30.0104 3.25831 29.8108C3.69634 28.9504 4.25367 28.2135 4.86939 27.6806C5.20794 27.3877 5.57174 27.1522 5.95236 26.9802C6.09491 26.6806 6.34239 26.4348 6.64481 26.2797C6.66065 25.0953 6.86358 24.0726 7.23876 23.2295C2.94351 25.186 0 29.1873 0 33.8082C0 39.7131 4.80455 40.002 11.094 40.002C11.7805 40.002 12.4833 39.9984 13.2015 39.9984H26.7965C27.5137 39.9984 28.2165 40.002 28.9031 40.002C35.1935 40.002 40 39.7131 40 33.8082C39.9995 29.1384 36.9931 25.102 32.6246 23.1691Z" fill="#1586FD" fill-opacity="0.25"/>
<path d="M20.0015 23.552C26.0816 23.552 31.0099 15.3427 31.0099 9.88356C31.0099 4.42533 26.0816 0 20.0015 0C13.9224 0 8.99414 4.42533 8.99414 9.88356C8.99414 15.3427 13.9224 23.552 20.0015 23.552Z" fill="#1586FD"/>
<path d="M32.6323 30.5085C33.4524 30.5085 34.1172 29.9115 34.1172 29.1751C34.1172 28.4388 33.4524 27.8418 32.6323 27.8418C31.8123 27.8418 31.1475 28.4388 31.1475 29.1751C31.1475 29.9115 31.8123 30.5085 32.6323 30.5085Z" fill="#1586FD" fill-opacity="0.25"/>
</svg>
