<svg width="40" height="40" viewBox="0 0 40 40" fill="none" xmlns="http://www.w3.org/2000/svg">
<path fill-rule="evenodd" clip-rule="evenodd" d="M8.83721 2.79077H6.97674C3.12372 2.79077 0 5.91449 0 9.76752V32.0931C0 35.9461 3.12372 39.0698 6.97674 39.0698H21.6298C20.986 37.8084 20.8893 36.3257 21.386 34.9768C22.2586 32.5954 23.9498 30.6029 26.1172 29.3452C24.8298 28.0075 24.0372 26.188 24.0372 24.1861C24.0372 20.0782 27.3712 16.7443 31.4791 16.7443C33.3079 16.7443 34.9823 17.4047 36.2791 18.5005V9.76752C36.2791 5.91449 33.1553 2.79077 29.3023 2.79077H27.4419V6.97682C27.4419 7.74705 26.8167 8.37217 26.0465 8.37217C25.2763 8.37217 24.6512 7.74705 24.6512 6.97682V2.79077H11.6279V6.97682C11.6279 7.74705 11.0028 8.37217 10.2326 8.37217C9.46233 8.37217 8.83721 7.74705 8.83721 6.97682V2.79077ZM8.83721 25.1164H18.1395C18.9098 25.1164 19.5349 24.4912 19.5349 23.721C19.5349 22.9508 18.9098 22.3257 18.1395 22.3257H8.83721C8.06698 22.3257 7.44186 22.9508 7.44186 23.721C7.44186 24.4912 8.06698 25.1164 8.83721 25.1164ZM8.83721 17.6745H14.6047C15.3749 17.6745 16 17.0494 16 16.2791C16 15.5089 15.3749 14.8838 14.6047 14.8838H8.83721C8.06698 14.8838 7.44186 15.5089 7.44186 16.2791C7.44186 17.0494 8.06698 17.6745 8.83721 17.6745Z" fill="#1586FD" fill-opacity="0.25"/>
<path d="M31.4791 29.7675C34.5616 29.7675 37.0605 27.2687 37.0605 24.1861C37.0605 21.1036 34.5616 18.6047 31.4791 18.6047C28.3966 18.6047 25.8977 21.1036 25.8977 24.1861C25.8977 27.2687 28.3966 29.7675 31.4791 29.7675Z" fill="#1586FD"/>
<path fill-rule="evenodd" clip-rule="evenodd" d="M26.1897 39.9999L36.7814 39.9757C37.8251 39.9757 38.8149 39.4585 39.4195 38.5915C40.0242 37.7245 40.1656 36.6176 39.8009 35.6259C38.586 32.2194 35.3172 29.7673 31.479 29.7673C27.6465 29.7673 24.3795 32.212 23.133 35.6185C22.7646 36.6176 22.9079 37.7338 23.5181 38.6064C24.1265 39.4808 25.1256 39.9999 26.1897 39.9999Z" fill="#1586FD"/>
<path fill-rule="evenodd" clip-rule="evenodd" d="M8.83722 2.7907H11.6279V1.39535C11.6279 0.625116 11.0028 0 10.2326 0C9.46234 0 8.83722 0.625116 8.83722 1.39535V2.7907Z" fill="#1586FD" fill-opacity="0.25"/>
<path fill-rule="evenodd" clip-rule="evenodd" d="M24.6512 2.7907H27.4419V1.39535C27.4419 0.625116 26.8168 0 26.0465 0C25.2763 0 24.6512 0.625116 24.6512 1.39535V2.7907Z" fill="#1586FD" fill-opacity="0.25"/>
</svg>
