<svg width="64" height="64" viewBox="0 0 64 64" fill="none" xmlns="http://www.w3.org/2000/svg">
<rect width="64" height="64" fill="white"/>
<g clip-path="url(#clip0_378_5844)">
<path d="M38.2695 35.1494C45.3818 39.9293 49.9604 44.5077 49.9604 44.5077C49.9604 44.5077 50.4152 46.0746 48.245 48.2448C46.0748 50.415 44.508 49.9601 44.508 49.9601C44.508 49.9601 39.9295 45.3816 35.1497 38.2693" fill="#26457D"/>
<path d="M35.15 38.2695L36.2828 37.1367C41.774 43.183 46.3533 47.8342 47.4557 48.9467C45.7052 50.3075 44.5081 49.9605 44.5081 49.9605C44.5081 49.9605 39.9294 45.3817 35.15 38.2695Z" fill="#21386B"/>
<path d="M28.1592 42.3182C35.979 42.3182 42.3183 35.979 42.3183 28.1591C42.3183 20.3392 35.979 14 28.1592 14C20.3393 14 14.0001 20.3392 14.0001 28.1591C14.0001 35.979 20.3393 42.3182 28.1592 42.3182Z" fill="#F19028"/>
<path d="M29.2295 42.2788C28.8758 42.305 28.5197 42.3185 28.1597 42.3185C20.3399 42.3185 14 35.9786 14 28.1589C14 20.3391 20.3399 14 28.1597 14C28.5197 14 28.8758 14.0135 29.2295 14.0397C21.9094 14.5861 16.1398 20.6984 16.1398 28.1589C16.1398 35.6194 21.9094 41.7324 29.2295 42.2788Z" fill="#E27D47"/>
<path d="M28.1592 37.8216C33.4958 37.8216 37.8219 33.4955 37.8219 28.1589C37.8219 22.8223 33.4958 18.4961 28.1592 18.4961C22.8226 18.4961 18.4964 22.8223 18.4964 28.1589C18.4964 33.4955 22.8226 37.8216 28.1592 37.8216Z" fill="#F1F4F6"/>
<path d="M18.4964 28.1589C18.4964 22.8222 22.8226 18.4961 28.1592 18.4961C28.6098 18.4961 29.0527 18.5271 29.4865 18.5862C24.7779 19.2333 21.151 23.2729 21.151 28.1589C21.151 33.0449 24.778 37.0845 29.4865 37.7316C29.0527 37.7908 28.6098 37.8218 28.1592 37.8218C22.8226 37.8217 18.4964 33.4955 18.4964 28.1589Z" fill="#D0E2E7"/>
<path d="M34.1499 27.7768L32.9219 28.9741C32.5437 29.3426 32.371 29.8733 32.4605 30.3937L32.7503 32.0839C32.975 33.3941 31.6001 34.3932 30.4233 33.7745L28.9054 32.9766C28.4383 32.7306 27.8801 32.7306 27.4129 32.9766L25.895 33.7745C24.7182 34.3932 23.3433 33.394 23.568 32.0839L23.8578 30.3937C23.9473 29.8733 23.7746 29.3425 23.3964 28.9741L22.1683 27.7768C21.2167 26.8491 21.742 25.2328 23.0572 25.0416L24.7544 24.795C25.2767 24.719 25.7284 24.391 25.962 23.9177L26.7209 22.3797C27.0151 21.7838 27.5871 21.4858 28.1591 21.4858C28.7311 21.4858 29.3032 21.7838 29.5973 22.3797L30.3562 23.9177C30.5898 24.391 31.0416 24.719 31.5639 24.795L33.261 25.0416C34.5763 25.2329 35.1016 26.8491 34.1499 27.7768Z" fill="#F9DA41"/>
<path d="M24.2679 27.9849C24.7702 29.2616 25.5149 30.1153 24.9918 31.3207C24.4688 32.5264 24.7331 34.1098 27.4129 32.9766L25.895 33.7745C24.7182 34.3932 23.3433 33.394 23.568 32.0839L23.8578 30.3937C23.9473 29.8733 23.7746 29.3425 23.3964 28.9741L22.1683 27.7768C21.2167 26.8491 21.742 25.2328 23.0572 25.0416L24.7544 24.795C25.2767 24.719 25.7284 24.391 25.962 23.9177L26.7209 22.3797C27.0151 21.7838 27.5871 21.4858 28.1591 21.4858C27.0305 21.4858 27.4996 24.7407 25.8837 25.5944C24.2679 26.4485 23.7657 26.7083 24.2679 27.9849Z" fill="#EDC932"/>
</g>
<defs>
<clipPath id="clip0_378_5844">
<rect width="36" height="36" fill="white" transform="translate(14 14)"/>
</clipPath>
</defs>
</svg>
