<svg width="40" height="40" viewBox="0 0 40 40" fill="none" xmlns="http://www.w3.org/2000/svg">
<path d="M28.6357 4.56632C27.5633 3.55636 26.19 3.07129 24.8062 3.07129C23.2485 3.07129 21.6764 3.68592 20.5038 4.85901L20 5.36284L19.4961 4.85882C18.3235 3.68621 16.7515 3.07129 15.1937 3.07129C13.8096 3.07129 12.437 3.55636 11.3642 4.56632C9.00508 6.78764 8.96295 10.5021 11.238 12.7771L20.0001 21.5391L28.7621 12.7771C31.0371 10.502 30.9949 6.78755 28.6357 4.56632Z" fill="#1586FD"/>
<path d="M16.9288 36.9287L16.9221 28.2471C16.9221 24.0544 14.7744 21.5962 11.9298 20.6704C11.1359 20.4301 10.4246 19.7988 9.76302 19.1369C8.56107 17.8852 7.27612 16.1732 5.61161 16.1944L5.61007 16.1881C5.0671 16.1952 4.52423 16.3914 4.05349 16.8621C2.94956 17.9661 3.39557 19.6527 4.34763 20.6048L7.44021 23.6971C7.72877 23.9856 7.89104 24.3771 7.89104 24.7852C7.89104 25.1934 7.72877 25.5848 7.44021 25.8735L3.25947 21.6929C2.53288 20.9664 2.03915 19.9843 1.90459 18.9985C1.73703 17.7705 2.1135 16.6254 2.96485 15.7741C3.60247 15.1365 4.38476 14.7765 5.23803 14.6855L4.61358 12.1634C4.56626 2.80372 0.000384746 3.94718 0.000384746 6.14899L0 22.5804C0 23.601 0.395326 24.5628 1.11365 25.2886C8.75893 33.0047 7.69492 30.5189 7.69492 36.9287H16.9288Z" fill="#1586FD" fill-opacity="0.25"/>
<path d="M39.9996 6.14918C39.9996 3.94748 35.4338 2.80392 35.3864 12.1637L34.762 14.6858C35.6153 14.7768 36.3975 15.1367 37.0352 15.7744C37.8865 16.6257 38.2631 17.7708 38.0954 18.9988C37.961 19.9845 37.4672 20.9667 36.7405 21.6932L32.5598 25.8738C32.2712 25.585 32.109 25.1937 32.109 24.7855C32.109 24.3775 32.2712 23.9859 32.5598 23.6973L35.6524 20.605C36.6044 19.653 37.0505 17.9663 35.9465 16.8624C35.4758 16.3917 34.9328 16.1955 34.3899 16.1884L34.3884 16.1947C32.7239 16.1734 31.4389 17.8855 30.237 19.1372C29.5753 19.7991 28.864 20.4303 28.0702 20.6706C25.2256 21.5964 23.0779 24.0547 23.0779 28.2473L23.0712 36.9289H32.3051C32.3051 30.5193 31.2411 33.005 38.8864 25.2888C39.6048 24.5629 40 23.6011 40 22.5806L39.9996 6.14918Z" fill="#1586FD" fill-opacity="0.25"/>
</svg>
