<svg width="52" height="51" viewBox="0 0 52 51" fill="none" xmlns="http://www.w3.org/2000/svg">
<path d="M51.7677 9.7589C51.4372 7.20754 50.6194 4.82351 49.0159 2.75125C48.1068 1.57425 47.002 0.65467 45.5332 0.2242C42.416 -0.692516 39.9932 1.32397 40.0585 4.0541C40.0875 5.28401 40.2412 6.50964 40.2963 7.73955C40.3543 9.0281 40.0077 9.35703 38.7028 9.38135C36.9659 9.41424 35.2753 9.6874 33.7109 10.474C30.8836 11.8941 29.7092 14.3668 29.3076 17.3114C28.9248 20.1302 29.283 22.949 29.3308 25.7678C29.3323 25.8894 29.4454 26.0767 29.5526 26.1182C30.5067 26.4886 31.4708 26.8318 32.4539 27.1894C32.4669 27.0678 32.4945 26.9291 32.4916 26.7918C32.4655 25.5604 32.4118 24.3277 32.4104 23.0963C32.4089 21.2572 32.3364 19.4109 32.4887 17.5846C32.667 15.4594 33.6152 13.7075 35.8248 13.0139C36.8093 12.705 37.8764 12.5934 38.9145 12.5191C40.2165 12.4261 40.9879 13.1026 41.0386 14.3968C41.0792 15.4065 40.9734 16.4262 40.8777 17.4373C40.724 19.0533 40.4818 20.6622 40.3572 22.2812C40.2368 23.8443 40.8081 25.1929 41.9419 26.2912C42.6074 26.9348 43.4135 27.2552 44.3603 27.1579C45.7217 27.0178 46.8961 26.47 47.8907 25.5447C49.1159 24.4049 49.9307 23.0019 50.5179 21.466C51.9664 17.6733 52.2839 13.7533 51.7677 9.7589ZM41.6374 8.96804C41.6519 8.73493 41.9259 8.34021 42.1101 8.32591C42.9118 8.25869 43.2642 7.76673 43.5454 7.13032C44.0834 5.9147 45.0475 5.35266 46.38 5.37268C46.6134 5.38555 46.8497 5.38555 47.0817 5.41559C47.4601 5.46421 47.6747 5.69875 47.6646 6.06487C47.653 6.43384 47.4108 6.63692 47.0411 6.68697C47.0063 6.69269 46.9686 6.69556 46.9338 6.6884C45.642 6.45243 44.9127 7.05881 44.4357 8.19433C44.066 9.0753 43.3062 9.51006 42.3333 9.54152C41.9346 9.55439 41.6128 9.35274 41.6374 8.96804ZM47.3383 16.0758C47.1426 16.1058 46.944 16.1158 46.7453 16.1359C45.3795 16.1459 44.3632 15.6024 43.8006 14.3411C43.528 13.7261 43.2091 13.2155 42.4058 13.1927C42.0434 13.1826 41.794 12.848 41.9216 12.5005C42.0057 12.2745 42.3101 11.9899 42.5334 11.9742C43.3889 11.9113 44.0732 12.2802 44.5473 12.9996C44.6068 13.0897 44.6793 13.1769 44.7141 13.2756C45.136 14.4726 45.9479 15.0161 47.2542 14.8216C47.6167 14.7687 47.8849 14.986 47.9197 15.375C47.956 15.7812 47.74 16.0129 47.3383 16.0758ZM50.0293 10.78C49.8843 11.2205 49.5494 11.3235 49.1231 11.2133C47.9096 10.9016 46.6975 10.8944 45.4825 11.2162C45.0838 11.322 44.7445 11.2319 44.6242 10.8029C44.498 10.3538 44.73 10.0707 45.1664 9.98343C45.8711 9.84328 46.583 9.73888 47.2716 9.62161C48.0082 9.73745 48.7056 9.82469 49.3928 9.96341C49.9104 10.0678 50.154 10.4068 50.0293 10.78Z" fill="#0E82FD"/>
<path d="M22.5514 16.4554C21.8903 12.9788 19.9112 10.6319 16.3503 9.77957C15.3745 9.54646 14.3523 9.45064 13.3447 9.39486C12.0035 9.31907 11.6468 8.99443 11.7005 7.66726C11.7077 7.48993 11.7382 7.31259 11.7527 7.13525C11.831 6.19136 11.976 5.24748 11.9731 4.30502C11.9658 1.7651 10.4333 0.0661006 8.11783 0.00603503C6.57951 -0.0354389 5.24852 0.530894 4.12196 1.54772C2.35455 3.14518 1.32079 5.17454 0.721985 7.42128C-0.239286 11.0324 -0.185641 14.6735 0.558148 18.3103C1.04676 20.6972 1.86304 22.9583 3.46806 24.8661C4.37134 25.9387 5.4834 26.7038 6.87818 27.0313C8.47885 27.406 9.6489 26.9755 10.629 25.6641C11.3554 24.693 11.7469 23.6032 11.6628 22.4062C11.5598 20.9303 11.3482 19.4601 11.2061 17.9857C11.0959 16.8316 10.9393 15.6746 10.9538 14.519C10.9697 13.1404 11.757 12.4768 13.1359 12.504C13.5505 12.5126 13.9667 12.5526 14.3813 12.5898C17.3855 12.8615 19.1224 14.5176 19.5313 17.4622C19.8213 19.5488 19.656 21.6354 19.5806 23.7234C19.5385 24.8889 19.5733 26.0559 19.5733 27.2058C20.597 26.8096 21.6032 26.4192 22.6949 25.9959C22.7544 23.8449 22.8544 21.6668 22.8559 19.4887C22.8573 18.4776 22.7399 17.4508 22.5514 16.4554ZM2.90551 11.2097C2.49519 11.3141 2.13852 11.2569 1.99643 10.7935C1.87319 10.3917 2.08487 10.0727 2.60683 9.96692C3.31147 9.82533 4.02627 9.73667 4.74251 9.62368C5.4341 9.73667 6.11264 9.82247 6.78104 9.96263C7.2856 10.0685 7.53353 10.4231 7.40594 10.7878C7.25225 11.224 6.91588 11.3255 6.49106 11.2111C5.29636 10.8879 4.10166 10.9065 2.90551 11.2097ZM9.61991 13.1747C8.82682 13.2176 8.4861 13.7053 8.21787 14.3231C7.63502 15.6646 6.54761 16.1637 5.13397 16.1208C4.38874 16.0979 4.05381 15.8719 4.07846 15.4086C4.10166 14.9638 4.40033 14.8022 5.27171 14.8351C6.07495 14.918 6.71434 14.5562 7.08261 13.6996C7.43204 12.8858 7.93515 12.2036 8.88772 12.0106C9.082 11.9705 9.28208 11.9534 9.47927 11.9519C9.86784 11.9505 10.1448 12.1879 10.1071 12.5326C10.081 12.7714 9.80404 13.1647 9.61991 13.1747ZM10.3883 8.96296C10.3521 9.37627 10.0694 9.55218 9.67645 9.53931C8.88917 9.51499 8.23382 9.2161 7.78726 8.55538C7.61617 8.30367 7.45813 8.0391 7.34069 7.76022C6.98547 6.91215 6.34318 6.58036 5.44135 6.67189C5.31521 6.68476 5.18762 6.69048 5.06148 6.68762C4.63522 6.67618 4.35684 6.46452 4.35539 6.03977C4.35394 5.64362 4.60767 5.42767 5.01508 5.40479C5.21372 5.39478 5.41235 5.38477 5.61099 5.37333C6.97532 5.34043 7.94095 5.92679 8.489 7.16386C8.75433 7.76165 9.0762 8.26077 9.84464 8.29223C10.2231 8.30939 10.4217 8.58684 10.3883 8.96296Z" fill="#0E82FD"/>
<path d="M26.0657 26.9611C19.3209 26.931 13.8577 32.2783 13.8244 38.9427C13.791 45.5256 19.2208 50.9501 25.8917 50.9988C32.6496 51.0474 38.1766 45.6629 38.2027 39.0071C38.2288 32.4027 32.7772 26.9911 26.0657 26.9611ZM33.7008 42.6782H29.747V46.5653H22.2569V42.6754H18.3292V35.2844H22.2206V31.4073H29.7441V35.2372H33.7008V42.6782Z" fill="#0E82FD"/>
<path d="M32.3885 36.5325V41.4007H28.4535V45.2735H23.5746V41.3992H19.6396V36.564H23.5137V32.7012H28.4274V36.5325H32.3885Z" fill="#0E82FD"/>
</svg>
